{
  "accessors": [
    {
      "bufferView": 2,
      "componentType": 5126,
      "count": 8060,
      "max": [
        36.326416015625,
        147.79043579101563,
        73.78357696533203
      ],
      "min": [
        -31.408533096313477,
        0.6019110083580017,
        -73.19109344482422
      ],
      "type": "VEC3"
    },
    {
      "bufferView": 2,
      "byteOffset": 96720,
      "componentType": 5126,
      "count": 8060,
      "max": [
        0.9999069571495056,
        0.999991774559021,
        0.9997426867485046
      ],
      "min": [
        -0.999976396560669,
        -1.0,
        -0.9984780550003052
      ],
      "type": "VEC3"
    },
    {
      "bufferView": 3,
      "componentType": 5126,
      "count": 8060,
      "max": [
        0.9999976754188538,
        0.9999443292617798,
        0.9990667700767517,
        1.0
      ],
      "min": [
        -0.9964954257011414,
        -0.999921441078186,
        -0.9998842477798462,
        -1.0
      ],
      "type": "VEC4"
    },
    {
      "bufferView": 1,
      "componentType": 5126,
      "count": 8060,
      "max": [
        0.9514082074165344,
        0.9893880486488342
      ],
      "min": [
        0.01061197929084301,
        0.010612010955810547
      ],
      "type": "VEC2"
    },
    {
      "bufferView": 1,
      "byteOffset": 64480,
      "componentType": 5126,
      "count": 8060,
      "max": [
        0.9514082074165344,
        0.9893880486488342
      ],
      "min": [
        0.01061197929084301,
        0.010612010955810547
      ],
      "type": "VEC2"
    },
    {
      "bufferView": 0,
      "componentType": 5125,
      "count": 43158,
      "type": "SCALAR"
    }
  ],
  "asset": {
    "extras": {
      "author": "karlwirbelwind (https://sketchfab.com/karlwirbelwind)",
      "license": "CC-BY-4.0 (http://creativecommons.org/licenses/by/4.0/)",
      "source": "https://sketchfab.com/3d-models/cc0-seated-lion-ready-to-unity-hdrp-c2491d01807640a48a893207528f65ee",
      "title": "[CC0] Seated Lion - Ready to Unity HDRP"
    },
    "generator": "Sketchfab-12.68.0",
    "version": "2.0"
  },
  "bufferViews": [
    {
      "buffer": 0,
      "byteLength": 172632,
      "name": "floatBufferViews",
      "target": 34963
    },
    {
      "buffer": 0,
      "byteLength": 128960,
      "byteOffset": 172632,
      "byteStride": 8,
      "name": "floatBufferViews",
      "target": 34962
    },
    {
      "buffer": 0,
      "byteLength": 193440,
      "byteOffset": 301592,
      "byteStride": 12,
      "name": "floatBufferViews",
      "target": 34962
    },
    {
      "buffer": 0,
      "byteLength": 128960,
      "byteOffset": 495032,
      "byteStride": 16,
      "name": "floatBufferViews",
      "target": 34962
    }
  ],
  "buffers": [
    {
      "byteLength": 623992,
      "uri": "scene.bin"
    }
  ],
  "images": [
    {
      "uri": "textures/lion_stone_baseColor.png"
    },
    {
      "uri": "textures/lion_stone_metallicRoughness.png"
    },
    {
      "uri": "textures/lion_stone_normal.png"
    }
  ],
  "materials": [
    {
      "name": "lion_stone",
      "normalTexture": {
        "index": 2
      },
      "occlusionTexture": {
        "index": 1
      },
      "pbrMetallicRoughness": {
        "baseColorTexture": {
          "index": 0
        },
        "metallicRoughnessTexture": {
          "index": 1
        }
      }
    }
  ],
  "meshes": [
    {
      "name": "lion_stone_LOD0_lion_stone_0",
      "primitives": [
        {
          "attributes": {
            "NORMAL": 1,
            "POSITION": 0,
            "TANGENT": 2,
            "TEXCOORD_0": 3,
            "TEXCOORD_1": 4
          },
          "indices": 5,
          "material": 0,
          "mode": 4
        }
      ]
    }
  ],
  "nodes": [
    {
      "children": [
        1
      ],
      "matrix": [
        1.0,
        0.0,
        0.0,
        0.0,
        0.0,
        2.220446049250313e-16,
        -1.0,
        0.0,
        0.0,
        1.0,
        2.220446049250313e-16,
        0.0,
        0.0,
        0.0,
        0.0,
        1.0
      ],
      "name": "Sketchfab_model"
    },
    {
      "children": [
        2
      ],
      "matrix": [
        1.0,
        0.0,
        0.0,
        0.0,
        0.0,
        0.0,
        1.0,
        0.0,
        0.0,
        -1.0,
        0.0,
        0.0,
        0.0,
        0.0,
        0.0,
        1.0
      ],
      "name": "Mesh_Barye_Lions_LOD0.fbx"
    },
    {
      "children": [
        3
      ],
      "name": "RootNode"
    },
    {
      "children": [
        4
      ],
      "name": "lion_stone_LOD0"
    },
    {
      "mesh": 0,
      "name": "lion_stone_LOD0_lion_stone_0"
    }
  ],
  "samplers": [
    {
      "magFilter": 9729,
      "minFilter": 9987,
      "wrapS": 10497,
      "wrapT": 10497
    }
  ],
  "scene": 0,
  "scenes": [
    {
      "name": "Sketchfab_Scene",
      "nodes": [
        0
      ]
    }
  ],
  "textures": [
    {
      "sampler": 0,
      "source": 0
    },
    {
      "sampler": 0,
      "source": 1
    },
    {
      "sampler": 0,
      "source": 2
    }
  ]
}
