{
  "accessors": [
    {
      "bufferView": 2,
      "componentType": 5126,
      "count": 274,
      "max": [
        0.27559053897857666,
        0.27559053897857666,
        7.1008148193359375
      ],
      "min": [
        -0.2755906581878662,
        -0.27559053897857666,
        0.0
      ],
      "type": "VEC3"
    },
    {
      "bufferView": 2,
      "byteOffset": 3288,
      "componentType": 5126,
      "count": 274,
      "max": [
        1.0,
        1.0,
        1.0
      ],
      "min": [
        -1.0,
        -1.0,
        -1.0
      ],
      "type": "VEC3"
    },
    {
      "bufferView": 3,
      "componentType": 5126,
      "count": 274,
      "max": [
        1.0,
        1.0,
        0.1316058486700058,
        1.0
      ],
      "min": [
        -1.0,
        -1.0,
        -0.1316063553094864,
        -1.0
      ],
      "type": "VEC4"
    },
    {
      "bufferView": 1,
      "componentType": 5126,
      "count": 274,
      "max": [
        0.9983184337615967,
        1.0
      ],
      "min": [
        -1.2517996310634771e-06,
        0.0019781242590397596
      ],
      "type": "VEC2"
    },
    {
      "bufferView": 1,
      "byteOffset": 2192,
      "componentType": 5126,
      "count": 274,
      "max": [
        0.9983184337615967,
        1.0
      ],
      "min": [
        -1.2517996310634771e-06,
        0.0019781242590397596
      ],
      "type": "VEC2"
    },
    {
      "bufferView": 1,
      "byteOffset": 4384,
      "componentType": 5126,
      "count": 274,
      "max": [
        0.9983184337615967,
        1.0
      ],
      "min": [
        -1.2517996310634771e-06,
        0.0019781242590397596
      ],
      "type": "VEC2"
    },
    {
      "bufferView": 0,
      "componentType": 5125,
      "count": 276,
      "type": "SCALAR"
    },
    {
      "bufferView": 2,
      "byteOffset": 6576,
      "componentType": 5126,
      "count": 148,
      "max": [
        5.091177463531494,
        0.6861441731452942,
        9.375248908996582
      ],
      "min": [
        -0.5228292942047119,
        -0.17494267225265503,
        0.0
      ],
      "type": "VEC3"
    },
    {
      "bufferView": 2,
      "byteOffset": 8352,
      "componentType": 5126,
      "count": 148,
      "max": [
        1.0,
        1.0,
        1.0
      ],
      "min": [
        -1.0,
        -1.0,
        -1.0
      ],
      "type": "VEC3"
    },
    {
      "bufferView": 3,
      "byteOffset": 4384,
      "componentType": 5126,
      "count": 148,
      "max": [
        1.0,
        1.0,
        0.9455111622810364,
        1.0
      ],
      "min": [
        -1.0,
        -1.0,
        -1.0,
        1.0
      ],
      "type": "VEC4"
    },
    {
      "bufferView": 1,
      "byteOffset": 6576,
      "componentType": 5126,
      "count": 148,
      "max": [
        0.9975345730781555,
        0.9941054582595825
      ],
      "min": [
        0.00883151963353157,
        0.008496113121509552
      ],
      "type": "VEC2"
    },
    {
      "bufferView": 1,
      "byteOffset": 7760,
      "componentType": 5126,
      "count": 148,
      "max": [
        0.9975345730781555,
        0.9941054582595825
      ],
      "min": [
        0.00883151963353157,
        0.008496113121509552
      ],
      "type": "VEC2"
    },
    {
      "bufferView": 1,
      "byteOffset": 8944,
      "componentType": 5126,
      "count": 148,
      "max": [
        0.9975345730781555,
        0.9941054582595825
      ],
      "min": [
        0.00883151963353157,
        0.008496113121509552
      ],
      "type": "VEC2"
    },
    {
      "bufferView": 0,
      "byteOffset": 1104,
      "componentType": 5125,
      "count": 150,
      "type": "SCALAR"
    },
    {
      "bufferView": 2,
      "byteOffset": 10128,
      "componentType": 5126,
      "count": 274,
      "max": [
        0.27559053897857666,
        0.27559053897857666,
        7.1008148193359375
      ],
      "min": [
        -0.2755906581878662,
        -0.27559053897857666,
        0.0
      ],
      "type": "VEC3"
    },
    {
      "bufferView": 2,
      "byteOffset": 13416,
      "componentType": 5126,
      "count": 274,
      "max": [
        1.0,
        1.0,
        1.0
      ],
      "min": [
        -1.0,
        -1.0,
        -1.0
      ],
      "type": "VEC3"
    },
    {
      "bufferView": 3,
      "byteOffset": 6752,
      "componentType": 5126,
      "count": 274,
      "max": [
        1.0,
        1.0,
        0.1316058486700058,
        1.0
      ],
      "min": [
        -1.0,
        -1.0,
        -0.1316063553094864,
        -1.0
      ],
      "type": "VEC4"
    },
    {
      "bufferView": 1,
      "byteOffset": 10128,
      "componentType": 5126,
      "count": 274,
      "max": [
        0.9983184337615967,
        1.0
      ],
      "min": [
        -1.2517996310634771e-06,
        0.0019781242590397596
      ],
      "type": "VEC2"
    },
    {
      "bufferView": 1,
      "byteOffset": 12320,
      "componentType": 5126,
      "count": 274,
      "max": [
        0.9983184337615967,
        1.0
      ],
      "min": [
        -1.2517996310634771e-06,
        0.0019781242590397596
      ],
      "type": "VEC2"
    },
    {
      "bufferView": 1,
      "byteOffset": 14512,
      "componentType": 5126,
      "count": 274,
      "max": [
        0.9983184337615967,
        1.0
      ],
      "min": [
        -1.2517996310634771e-06,
        0.0019781242590397596
      ],
      "type": "VEC2"
    },
    {
      "bufferView": 0,
      "byteOffset": 1704,
      "componentType": 5125,
      "count": 276,
      "type": "SCALAR"
    },
    {
      "bufferView": 2,
      "byteOffset": 16704,
      "componentType": 5126,
      "count": 274,
      "max": [
        0.27559053897857666,
        0.27559053897857666,
        7.1008148193359375
      ],
      "min": [
        -0.2755906581878662,
        -0.27559053897857666,
        0.0
      ],
      "type": "VEC3"
    },
    {
      "bufferView": 2,
      "byteOffset": 19992,
      "componentType": 5126,
      "count": 274,
      "max": [
        1.0,
        1.0,
        1.0
      ],
      "min": [
        -1.0,
        -1.0,
        -1.0
      ],
      "type": "VEC3"
    },
    {
      "bufferView": 3,
      "byteOffset": 11136,
      "componentType": 5126,
      "count": 274,
      "max": [
        1.0,
        1.0,
        0.1316058486700058,
        1.0
      ],
      "min": [
        -1.0,
        -1.0,
        -0.1316063553094864,
        -1.0
      ],
      "type": "VEC4"
    },
    {
      "bufferView": 1,
      "byteOffset": 16704,
      "componentType": 5126,
      "count": 274,
      "max": [
        0.9983184337615967,
        1.0
      ],
      "min": [
        -1.2517996310634771e-06,
        0.0019781242590397596
      ],
      "type": "VEC2"
    },
    {
      "bufferView": 1,
      "byteOffset": 18896,
      "componentType": 5126,
      "count": 274,
      "max": [
        0.9983184337615967,
        1.0
      ],
      "min": [
        -1.2517996310634771e-06,
        0.0019781242590397596
      ],
      "type": "VEC2"
    },
    {
      "bufferView": 1,
      "byteOffset": 21088,
      "componentType": 5126,
      "count": 274,
      "max": [
        0.9983184337615967,
        1.0
      ],
      "min": [
        -1.2517996310634771e-06,
        0.0019781242590397596
      ],
      "type": "VEC2"
    },
    {
      "bufferView": 0,
      "byteOffset": 2808,
      "componentType": 5125,
      "count": 276,
      "type": "SCALAR"
    },
    {
      "bufferView": 2,
      "byteOffset": 23280,
      "componentType": 5126,
      "count": 274,
      "max": [
        0.27559053897857666,
        0.27559053897857666,
        7.1008148193359375
      ],
      "min": [
        -0.2755906581878662,
        -0.27559053897857666,
        0.0
      ],
      "type": "VEC3"
    },
    {
      "bufferView": 2,
      "byteOffset": 26568,
      "componentType": 5126,
      "count": 274,
      "max": [
        1.0,
        1.0,
        1.0
      ],
      "min": [
        -1.0,
        -1.0,
        -1.0
      ],
      "type": "VEC3"
    },
    {
      "bufferView": 3,
      "byteOffset": 15520,
      "componentType": 5126,
      "count": 274,
      "max": [
        1.0,
        1.0,
        0.1316058486700058,
        1.0
      ],
      "min": [
        -1.0,
        -1.0,
        -0.1316063553094864,
        -1.0
      ],
      "type": "VEC4"
    },
    {
      "bufferView": 1,
      "byteOffset": 23280,
      "componentType": 5126,
      "count": 274,
      "max": [
        0.9983184337615967,
        1.0
      ],
      "min": [
        -1.2517996310634771e-06,
        0.0019781242590397596
      ],
      "type": "VEC2"
    },
    {
      "bufferView": 1,
      "byteOffset": 25472,
      "componentType": 5126,
      "count": 274,
      "max": [
        0.9983184337615967,
        1.0
      ],
      "min": [
        -1.2517996310634771e-06,
        0.0019781242590397596
      ],
      "type": "VEC2"
    },
    {
      "bufferView": 1,
      "byteOffset": 27664,
      "componentType": 5126,
      "count": 274,
      "max": [
        0.9983184337615967,
        1.0
      ],
      "min": [
        -1.2517996310634771e-06,
        0.0019781242590397596
      ],
      "type": "VEC2"
    },
    {
      "bufferView": 0,
      "byteOffset": 3912,
      "componentType": 5125,
      "count": 276,
      "type": "SCALAR"
    },
    {
      "bufferView": 2,
      "byteOffset": 29856,
      "componentType": 5126,
      "count": 274,
      "max": [
        0.27559053897857666,
        0.27559053897857666,
        7.1008148193359375
      ],
      "min": [
        -0.2755906581878662,
        -0.27559053897857666,
        0.0
      ],
      "type": "VEC3"
    },
    {
      "bufferView": 2,
      "byteOffset": 33144,
      "componentType": 5126,
      "count": 274,
      "max": [
        1.0,
        1.0,
        1.0
      ],
      "min": [
        -1.0,
        -1.0,
        -1.0
      ],
      "type": "VEC3"
    },
    {
      "bufferView": 3,
      "byteOffset": 19904,
      "componentType": 5126,
      "count": 274,
      "max": [
        1.0,
        1.0,
        0.1316058486700058,
        1.0
      ],
      "min": [
        -1.0,
        -1.0,
        -0.1316063553094864,
        -1.0
      ],
      "type": "VEC4"
    },
    {
      "bufferView": 1,
      "byteOffset": 29856,
      "componentType": 5126,
      "count": 274,
      "max": [
        0.9983184337615967,
        1.0
      ],
      "min": [
        -1.2517996310634771e-06,
        0.0019781242590397596
      ],
      "type": "VEC2"
    },
    {
      "bufferView": 1,
      "byteOffset": 32048,
      "componentType": 5126,
      "count": 274,
      "max": [
        0.9983184337615967,
        1.0
      ],
      "min": [
        -1.2517996310634771e-06,
        0.0019781242590397596
      ],
      "type": "VEC2"
    },
    {
      "bufferView": 1,
      "byteOffset": 34240,
      "componentType": 5126,
      "count": 274,
      "max": [
        0.9983184337615967,
        1.0
      ],
      "min": [
        -1.2517996310634771e-06,
        0.0019781242590397596
      ],
      "type": "VEC2"
    },
    {
      "bufferView": 0,
      "byteOffset": 5016,
      "componentType": 5125,
      "count": 276,
      "type": "SCALAR"
    },
    {
      "bufferView": 2,
      "byteOffset": 36432,
      "componentType": 5126,
      "count": 274,
      "max": [
        0.27559053897857666,
        0.27559053897857666,
        7.1008148193359375
      ],
      "min": [
        -0.2755906581878662,
        -0.27559053897857666,
        0.0
      ],
      "type": "VEC3"
    },
    {
      "bufferView": 2,
      "byteOffset": 39720,
      "componentType": 5126,
      "count": 274,
      "max": [
        1.0,
        1.0,
        1.0
      ],
      "min": [
        -1.0,
        -1.0,
        -1.0
      ],
      "type": "VEC3"
    },
    {
      "bufferView": 3,
      "byteOffset": 24288,
      "componentType": 5126,
      "count": 274,
      "max": [
        1.0,
        1.0,
        0.1316058486700058,
        1.0
      ],
      "min": [
        -1.0,
        -1.0,
        -0.1316063553094864,
        -1.0
      ],
      "type": "VEC4"
    },
    {
      "bufferView": 1,
      "byteOffset": 36432,
      "componentType": 5126,
      "count": 274,
      "max": [
        0.9983184337615967,
        1.0
      ],
      "min": [
        -1.2517996310634771e-06,
        0.0019781242590397596
      ],
      "type": "VEC2"
    },
    {
      "bufferView": 1,
      "byteOffset": 38624,
      "componentType": 5126,
      "count": 274,
      "max": [
        0.9983184337615967,
        1.0
      ],
      "min": [
        -1.2517996310634771e-06,
        0.0019781242590397596
      ],
      "type": "VEC2"
    },
    {
      "bufferView": 1,
      "byteOffset": 40816,
      "componentType": 5126,
      "count": 274,
      "max": [
        0.9983184337615967,
        1.0
      ],
      "min": [
        -1.2517996310634771e-06,
        0.0019781242590397596
      ],
      "type": "VEC2"
    },
    {
      "bufferView": 0,
      "byteOffset": 6120,
      "componentType": 5125,
      "count": 276,
      "type": "SCALAR"
    },
    {
      "bufferView": 2,
      "byteOffset": 43008,
      "componentType": 5126,
      "count": 274,
      "max": [
        0.27559053897857666,
        0.27559053897857666,
        7.1008148193359375
      ],
      "min": [
        -0.2755906581878662,
        -0.27559053897857666,
        0.0
      ],
      "type": "VEC3"
    },
    {
      "bufferView": 2,
      "byteOffset": 46296,
      "componentType": 5126,
      "count": 274,
      "max": [
        1.0,
        1.0,
        1.0
      ],
      "min": [
        -1.0,
        -1.0,
        -1.0
      ],
      "type": "VEC3"
    },
    {
      "bufferView": 3,
      "byteOffset": 28672,
      "componentType": 5126,
      "count": 274,
      "max": [
        1.0,
        1.0,
        0.1316058486700058,
        1.0
      ],
      "min": [
        -1.0,
        -1.0,
        -0.1316063553094864,
        -1.0
      ],
      "type": "VEC4"
    },
    {
      "bufferView": 1,
      "byteOffset": 43008,
      "componentType": 5126,
      "count": 274,
      "max": [
        0.9983184337615967,
        1.0
      ],
      "min": [
        -1.2517996310634771e-06,
        0.0019781242590397596
      ],
      "type": "VEC2"
    },
    {
      "bufferView": 1,
      "byteOffset": 45200,
      "componentType": 5126,
      "count": 274,
      "max": [
        0.9983184337615967,
        1.0
      ],
      "min": [
        -1.2517996310634771e-06,
        0.0019781242590397596
      ],
      "type": "VEC2"
    },
    {
      "bufferView": 1,
      "byteOffset": 47392,
      "componentType": 5126,
      "count": 274,
      "max": [
        0.9983184337615967,
        1.0
      ],
      "min": [
        -1.2517996310634771e-06,
        0.0019781242590397596
      ],
      "type": "VEC2"
    },
    {
      "bufferView": 0,
      "byteOffset": 7224,
      "componentType": 5125,
      "count": 276,
      "type": "SCALAR"
    },
    {
      "bufferView": 2,
      "byteOffset": 49584,
      "componentType": 5126,
      "count": 274,
      "max": [
        0.27559053897857666,
        0.27559053897857666,
        7.1008148193359375
      ],
      "min": [
        -0.2755906581878662,
        -0.27559053897857666,
        0.0
      ],
      "type": "VEC3"
    },
    {
      "bufferView": 2,
      "byteOffset": 52872,
      "componentType": 5126,
      "count": 274,
      "max": [
        1.0,
        1.0,
        1.0
      ],
      "min": [
        -1.0,
        -1.0,
        -1.0
      ],
      "type": "VEC3"
    },
    {
      "bufferView": 3,
      "byteOffset": 33056,
      "componentType": 5126,
      "count": 274,
      "max": [
        1.0,
        1.0,
        0.1316058486700058,
        1.0
      ],
      "min": [
        -1.0,
        -1.0,
        -0.1316063553094864,
        -1.0
      ],
      "type": "VEC4"
    },
    {
      "bufferView": 1,
      "byteOffset": 49584,
      "componentType": 5126,
      "count": 274,
      "max": [
        0.9983184337615967,
        1.0
      ],
      "min": [
        -1.2517996310634771e-06,
        0.0019781242590397596
      ],
      "type": "VEC2"
    },
    {
      "bufferView": 1,
      "byteOffset": 51776,
      "componentType": 5126,
      "count": 274,
      "max": [
        0.9983184337615967,
        1.0
      ],
      "min": [
        -1.2517996310634771e-06,
        0.0019781242590397596
      ],
      "type": "VEC2"
    },
    {
      "bufferView": 1,
      "byteOffset": 53968,
      "componentType": 5126,
      "count": 274,
      "max": [
        0.9983184337615967,
        1.0
      ],
      "min": [
        -1.2517996310634771e-06,
        0.0019781242590397596
      ],
      "type": "VEC2"
    },
    {
      "bufferView": 0,
      "byteOffset": 8328,
      "componentType": 5125,
      "count": 276,
      "type": "SCALAR"
    }
  ],
  "asset": {
    "extras": {
      "author": "plaggy (https://sketchfab.com/plaggy)",
      "license": "CC-BY-4.0 (http://creativecommons.org/licenses/by/4.0/)",
      "source": "https://sketchfab.com/3d-models/cc0-crayons-22153c3ad0374aaf89ceced9a904283b",
      "title": "CC0 - Crayons"
    },
    "generator": "Sketchfab-12.64.0",
    "version": "2.0"
  },
  "bufferViews": [
    {
      "buffer": 0,
      "byteLength": 9432,
      "name": "floatBufferViews",
      "target": 34963
    },
    {
      "buffer": 0,
      "byteLength": 56160,
      "byteOffset": 9432,
      "byteStride": 8,
      "name": "floatBufferViews",
      "target": 34962
    },
    {
      "buffer": 0,
      "byteLength": 56160,
      "byteOffset": 65592,
      "byteStride": 12,
      "name": "floatBufferViews",
      "target": 34962
    },
    {
      "buffer": 0,
      "byteLength": 37440,
      "byteOffset": 121752,
      "byteStride": 16,
      "name": "floatBufferViews",
      "target": 34962
    }
  ],
  "buffers": [
    {
      "byteLength": 159192,
      "uri": "scene.bin"
    }
  ],
  "images": [
    {
      "uri": "textures/Black_baseColor.png"
    },
    {
      "uri": "textures/Black_metallicRoughness.png"
    },
    {
      "uri": "textures/Black_normal.png"
    },
    {
      "uri": "textures/CrayonsBox_baseColor.png"
    },
    {
      "uri": "textures/CrayonsBox_metallicRoughness.png"
    },
    {
      "uri": "textures/CrayonsBox_normal.png"
    },
    {
      "uri": "textures/Blue_baseColor.png"
    },
    {
      "uri": "textures/Brown_baseColor.png"
    },
    {
      "uri": "textures/Green_baseColor.png"
    },
    {
      "uri": "textures/material_baseColor.png"
    },
    {
      "uri": "textures/Violet_baseColor.png"
    },
    {
      "uri": "textures/Yellow_baseColor.png"
    },
    {
      "uri": "textures/Orange_baseColor.png"
    }
  ],
  "materials": [
    {
      "doubleSided": true,
      "name": "Black",
      "normalTexture": {
        "index": 2
      },
      "pbrMetallicRoughness": {
        "baseColorTexture": {
          "index": 0
        },
        "metallicFactor": 0.0,
        "metallicRoughnessTexture": {
          "index": 1
        }
      }
    },
    {
      "doubleSided": true,
      "name": "CrayonsBox",
      "normalTexture": {
        "index": 5
      },
      "occlusionTexture": {
        "index": 4
      },
      "pbrMetallicRoughness": {
        "baseColorTexture": {
          "index": 3
        },
        "metallicFactor": 0.0,
        "metallicRoughnessTexture": {
          "index": 4
        }
      }
    },
    {
      "doubleSided": true,
      "name": "Blue",
      "normalTexture": {
        "index": 2
      },
      "pbrMetallicRoughness": {
        "baseColorTexture": {
          "index": 6
        },
        "metallicFactor": 0.0,
        "metallicRoughnessTexture": {
          "index": 1
        }
      }
    },
    {
      "doubleSided": true,
      "name": "Brown",
      "normalTexture": {
        "index": 2
      },
      "pbrMetallicRoughness": {
        "baseColorTexture": {
          "index": 7
        },
        "metallicFactor": 0.0,
        "metallicRoughnessTexture": {
          "index": 1
        }
      }
    },
    {
      "doubleSided": true,
      "name": "Green",
      "normalTexture": {
        "index": 2
      },
      "pbrMetallicRoughness": {
        "baseColorTexture": {
          "index": 8
        },
        "metallicFactor": 0.0,
        "metallicRoughnessTexture": {
          "index": 1
        }
      }
    },
    {
      "doubleSided": true,
      "name": "material",
      "normalTexture": {
        "index": 2
      },
      "pbrMetallicRoughness": {
        "baseColorTexture": {
          "index": 9
        },
        "metallicFactor": 0.0,
        "metallicRoughnessTexture": {
          "index": 1
        }
      }
    },
    {
      "doubleSided": true,
      "name": "Violet",
      "normalTexture": {
        "index": 2
      },
      "pbrMetallicRoughness": {
        "baseColorTexture": {
          "index": 10
        },
        "metallicFactor": 0.0,
        "metallicRoughnessTexture": {
          "index": 1
        }
      }
    },
    {
      "doubleSided": true,
      "name": "Yellow",
      "normalTexture": {
        "index": 2
      },
      "pbrMetallicRoughness": {
        "baseColorTexture": {
          "index": 11
        },
        "metallicFactor": 0.0,
        "metallicRoughnessTexture": {
          "index": 1
        }
      }
    },
    {
      "doubleSided": true,
      "name": "Orange",
      "normalTexture": {
        "index": 2
      },
      "pbrMetallicRoughness": {
        "baseColorTexture": {
          "index": 12
        },
        "metallicFactor": 0.0,
        "metallicRoughnessTexture": {
          "index": 1
        }
      }
    }
  ],
  "meshes": [
    {
      "name": "CrayonBlack_Black_0",
      "primitives": [
        {
          "attributes": {
            "NORMAL": 1,
            "POSITION": 0,
            "TANGENT": 2,
            "TEXCOORD_0": 3,
            "TEXCOORD_1": 4,
            "TEXCOORD_2": 5
          },
          "indices": 6,
          "material": 0,
          "mode": 4
        }
      ]
    },
    {
      "name": "CrayonsBox_CrayonsBox_0",
      "primitives": [
        {
          "attributes": {
            "NORMAL": 8,
            "POSITION": 7,
            "TANGENT": 9,
            "TEXCOORD_0": 10,
            "TEXCOORD_1": 11,
            "TEXCOORD_2": 12
          },
          "indices": 13,
          "material": 1,
          "mode": 4
        }
      ]
    },
    {
      "name": "CrayonBlue_Blue_0",
      "primitives": [
        {
          "attributes": {
            "NORMAL": 15,
            "POSITION": 14,
            "TANGENT": 16,
            "TEXCOORD_0": 17,
            "TEXCOORD_1": 18,
            "TEXCOORD_2": 19
          },
          "indices": 20,
          "material": 2,
          "mode": 4
        }
      ]
    },
    {
      "name": "CrayonBrown_Brown_0",
      "primitives": [
        {
          "attributes": {
            "NORMAL": 22,
            "POSITION": 21,
            "TANGENT": 23,
            "TEXCOORD_0": 24,
            "TEXCOORD_1": 25,
            "TEXCOORD_2": 26
          },
          "indices": 27,
          "material": 3,
          "mode": 4
        }
      ]
    },
    {
      "name": "CrayonGreen_Green_0",
      "primitives": [
        {
          "attributes": {
            "NORMAL": 29,
            "POSITION": 28,
            "TANGENT": 30,
            "TEXCOORD_0": 31,
            "TEXCOORD_1": 32,
            "TEXCOORD_2": 33
          },
          "indices": 34,
          "material": 4,
          "mode": 4
        }
      ]
    },
    {
      "name": "CrayonRed_Red_0",
      "primitives": [
        {
          "attributes": {
            "NORMAL": 36,
            "POSITION": 35,
            "TANGENT": 37,
            "TEXCOORD_0": 38,
            "TEXCOORD_1": 39,
            "TEXCOORD_2": 40
          },
          "indices": 41,
          "material": 5,
          "mode": 4
        }
      ]
    },
    {
      "name": "CrayonViolet_Violet_0",
      "primitives": [
        {
          "attributes": {
            "NORMAL": 43,
            "POSITION": 42,
            "TANGENT": 44,
            "TEXCOORD_0": 45,
            "TEXCOORD_1": 46,
            "TEXCOORD_2": 47
          },
          "indices": 48,
          "material": 6,
          "mode": 4
        }
      ]
    },
    {
      "name": "CrayonYellow_Yellow_0",
      "primitives": [
        {
          "attributes": {
            "NORMAL": 50,
            "POSITION": 49,
            "TANGENT": 51,
            "TEXCOORD_0": 52,
            "TEXCOORD_1": 53,
            "TEXCOORD_2": 54
          },
          "indices": 55,
          "material": 7,
          "mode": 4
        }
      ]
    },
    {
      "name": "CrayonOrange_Orange_0",
      "primitives": [
        {
          "attributes": {
            "NORMAL": 57,
            "POSITION": 56,
            "TANGENT": 58,
            "TEXCOORD_0": 59,
            "TEXCOORD_1": 60,
            "TEXCOORD_2": 61
          },
          "indices": 62,
          "material": 8,
          "mode": 4
        }
      ]
    }
  ],
  "nodes": [
    {
      "children": [
        1
      ],
      "matrix": [
        1.0,
        0.0,
        0.0,
        0.0,
        0.0,
        2.220446049250313e-16,
        -1.0,
        0.0,
        0.0,
        1.0,
        2.220446049250313e-16,
        0.0,
        0.0,
        0.0,
        0.0,
        1.0
      ],
      "name": "Sketchfab_model"
    },
    {
      "children": [
        2
      ],
      "matrix": [
        1.0,
        0.0,
        0.0,
        0.0,
        0.0,
        0.0,
        1.0,
        0.0,
        0.0,
        -1.0,
        0.0,
        0.0,
        0.0,
        0.0,
        0.0,
        1.0
      ],
      "name": "970c682bed874dfdb0bbe121069a17d0.fbx"
    },
    {
      "children": [
        3,
        6,
        9,
        12,
        15,
        18,
        21,
        24,
        27
      ],
      "name": "RootNode"
    },
    {
      "children": [
        4
      ],
      "matrix": [
        0.02859468385577202,
        0.0,
        0.0,
        0.0,
        0.0,
        6.349295279711069e-18,
        -0.02859468385577202,
        0.0,
        0.0,
        0.02859468385577202,
        6.349295279711069e-18,
        0.0,
        -0.07364533841609955,
        -0.0015061519807204604,
        0.0001039794587995857,
        1.0
      ],
      "name": "CrayonBlack"
    },
    {
      "children": [
        5
      ],
      "matrix": [
        1.0,
        0.0,
        -0.0,
        0.0,
        0.0,
        1.0,
        0.0,
        0.0,
        0.0,
        0.0,
        1.0,
        0.0,
        0.0,
        0.0,
        -3.5504074096679688,
        1.0
      ],
      "name": "Object_4"
    },
    {
      "mesh": 0,
      "name": "CrayonBlack_Black_0"
    },
    {
      "children": [
        7
      ],
      "matrix": [
        0.02539999969303608,
        0.0,
        0.0,
        0.0,
        0.0,
        5.639932896936113e-18,
        -0.02539999969303608,
        0.0,
        0.0,
        0.02539999969303608,
        5.639932896936113e-18,
        0.0,
        0.13167136907577515,
        0.012049312703311443,
        -0.0008318357868120074,
        1.0
      ],
      "name": "CrayonsBox"
    },
    {
      "children": [
        8
      ],
      "matrix": [
        1.0,
        0.0,
        -0.0,
        0.0,
        0.0,
        1.0,
        0.0,
        0.0,
        0.0,
        0.0,
        1.0,
        0.0,
        -2.2841739654541016,
        -0.2556007504463196,
        -4.687624454498291,
        1.0
      ],
      "name": "Object_7"
    },
    {
      "mesh": 1,
      "name": "CrayonsBox_CrayonsBox_0"
    },
    {
      "children": [
        10
      ],
      "matrix": [
        0.02859468385577202,
        0.0,
        0.0,
        0.0,
        0.0,
        6.349295279711069e-18,
        -0.02859468385577202,
        0.0,
        0.0,
        0.02859468385577202,
        6.349295279711069e-18,
        0.0,
        -0.057384293526411057,
        -0.0015061459271237254,
        0.0001039794587995857,
        1.0
      ],
      "name": "CrayonBlue"
    },
    {
      "children": [
        11
      ],
      "matrix": [
        1.0,
        0.0,
        -0.0,
        0.0,
        0.0,
        1.0,
        0.0,
        0.0,
        0.0,
        0.0,
        1.0,
        0.0,
        0.0,
        0.0,
        -3.550407648086548,
        1.0
      ],
      "name": "Object_10"
    },
    {
      "mesh": 2,
      "name": "CrayonBlue_Blue_0"
    },
    {
      "children": [
        13
      ],
      "matrix": [
        0.02859468385577202,
        0.0,
        0.0,
        0.0,
        0.0,
        6.349295279711069e-18,
        -0.02859468385577202,
        0.0,
        0.0,
        0.02859468385577202,
        6.349295279711069e-18,
        0.0,
        -0.04113604873418808,
        -0.0015061459271237254,
        0.0001039794587995857,
        1.0
      ],
      "name": "CrayonBrown"
    },
    {
      "children": [
        14
      ],
      "matrix": [
        1.0,
        0.0,
        -0.0,
        0.0,
        0.0,
        1.0,
        0.0,
        0.0,
        0.0,
        0.0,
        1.0,
        0.0,
        0.0,
        0.0,
        -3.550407648086548,
        1.0
      ],
      "name": "Object_13"
    },
    {
      "mesh": 3,
      "name": "CrayonBrown_Brown_0"
    },
    {
      "children": [
        16
      ],
      "matrix": [
        0.02859468385577202,
        0.0,
        0.0,
        0.0,
        0.0,
        6.349295279711069e-18,
        -0.02859468385577202,
        0.0,
        0.0,
        0.02859468385577202,
        6.349295279711069e-18,
        0.0,
        -0.024650610983371735,
        -0.0015061459271237254,
        0.0001039794587995857,
        1.0
      ],
      "name": "CrayonGreen"
    },
    {
      "children": [
        17
      ],
      "matrix": [
        1.0,
        0.0,
        -0.0,
        0.0,
        0.0,
        1.0,
        0.0,
        0.0,
        0.0,
        0.0,
        1.0,
        0.0,
        0.0,
        0.0,
        -3.550407648086548,
        1.0
      ],
      "name": "Object_16"
    },
    {
      "mesh": 4,
      "name": "CrayonGreen_Green_0"
    },
    {
      "children": [
        19
      ],
      "matrix": [
        0.02859468385577202,
        0.0,
        0.0,
        0.0,
        0.0,
        6.349295279711069e-18,
        -0.02859468385577202,
        0.0,
        0.0,
        0.02859468385577202,
        6.349295279711069e-18,
        0.0,
        0.008106013759970665,
        -0.0015061459271237254,
        0.0001039794587995857,
        1.0
      ],
      "name": "CrayonRed"
    },
    {
      "children": [
        20
      ],
      "matrix": [
        1.0,
        0.0,
        -0.0,
        0.0,
        0.0,
        1.0,
        0.0,
        0.0,
        0.0,
        0.0,
        1.0,
        0.0,
        0.0,
        0.0,
        -3.550407648086548,
        1.0
      ],
      "name": "Object_19"
    },
    {
      "mesh": 5,
      "name": "CrayonRed_Red_0"
    },
    {
      "children": [
        22
      ],
      "matrix": [
        0.02859468385577202,
        0.0,
        0.0,
        0.0,
        0.0,
        6.349295279711069e-18,
        -0.02859468385577202,
        0.0,
        0.0,
        0.02859468385577202,
        6.349295279711069e-18,
        0.0,
        0.02435425855219364,
        -0.0015061459271237254,
        0.0001039794587995857,
        1.0
      ],
      "name": "CrayonViolet"
    },
    {
      "children": [
        23
      ],
      "matrix": [
        1.0,
        0.0,
        -0.0,
        0.0,
        0.0,
        1.0,
        0.0,
        0.0,
        0.0,
        0.0,
        1.0,
        0.0,
        0.0,
        0.0,
        -3.550407648086548,
        1.0
      ],
      "name": "Object_22"
    },
    {
      "mesh": 6,
      "name": "CrayonViolet_Violet_0"
    },
    {
      "children": [
        25
      ],
      "matrix": [
        0.02859468385577202,
        0.0,
        0.0,
        0.0,
        0.0,
        6.349295279711069e-18,
        -0.02859468385577202,
        0.0,
        0.0,
        0.02859468385577202,
        6.349295279711069e-18,
        0.0,
        0.040839701890945435,
        -0.0015061459271237254,
        0.0001039794587995857,
        1.0
      ],
      "name": "CrayonYellow"
    },
    {
      "children": [
        26
      ],
      "matrix": [
        1.0,
        0.0,
        -0.0,
        0.0,
        0.0,
        1.0,
        0.0,
        0.0,
        0.0,
        0.0,
        1.0,
        0.0,
        0.0,
        0.0,
        -3.550407648086548,
        1.0
      ],
      "name": "Object_25"
    },
    {
      "mesh": 7,
      "name": "CrayonYellow_Yellow_0"
    },
    {
      "children": [
        28
      ],
      "matrix": [
        0.02859468385577202,
        0.0,
        0.0,
        0.0,
        0.0,
        6.349295279711069e-18,
        -0.02859468385577202,
        0.0,
        0.0,
        0.02859468385577202,
        6.349295279711069e-18,
        0.0,
        -0.008155032992362976,
        -0.0015061459271237254,
        0.0001039794587995857,
        1.0
      ],
      "name": "CrayonOrange"
    },
    {
      "children": [
        29
      ],
      "matrix": [
        1.0,
        0.0,
        -0.0,
        0.0,
        0.0,
        1.0,
        0.0,
        0.0,
        0.0,
        0.0,
        1.0,
        0.0,
        0.0,
        0.0,
        -3.550407648086548,
        1.0
      ],
      "name": "Object_28"
    },
    {
      "mesh": 8,
      "name": "CrayonOrange_Orange_0"
    }
  ],
  "samplers": [
    {
      "magFilter": 9729,
      "minFilter": 9987,
      "wrapS": 10497,
      "wrapT": 10497
    }
  ],
  "scene": 0,
  "scenes": [
    {
      "name": "Sketchfab_Scene",
      "nodes": [
        0
      ]
    }
  ],
  "textures": [
    {
      "sampler": 0,
      "source": 0
    },
    {
      "sampler": 0,
      "source": 1
    },
    {
      "sampler": 0,
      "source": 2
    },
    {
      "sampler": 0,
      "source": 3
    },
    {
      "sampler": 0,
      "source": 4
    },
    {
      "sampler": 0,
      "source": 5
    },
    {
      "sampler": 0,
      "source": 6
    },
    {
      "sampler": 0,
      "source": 7
    },
    {
      "sampler": 0,
      "source": 8
    },
    {
      "sampler": 0,
      "source": 9
    },
    {
      "sampler": 0,
      "source": 10
    },
    {
      "sampler": 0,
      "source": 11
    },
    {
      "sampler": 0,
      "source": 12
    }
  ]
}
