{
  "accessors": [
    {
      "bufferView": 2,
      "componentType": 5126,
      "count": 3074,
      "max": [
        0.5926099419593811,
        0.6701086759567261,
        1.5973306894302368
      ],
      "min": [
        -0.5926099419593811,
        -0.6701086759567261,
        -0.015230134129524231
      ],
      "type": "VEC3"
    },
    {
      "bufferView": 2,
      "byteOffset": 36888,
      "componentType": 5126,
      "count": 3074,
      "max": [
        1.0,
        1.0,
        1.0
      ],
      "min": [
        -1.0,
        -1.0,
        -1.0
      ],
      "type": "VEC3"
    },
    {
      "bufferView": 3,
      "componentType": 5126,
      "count": 3074,
      "max": [
        1.0,
        1.0,
        1.0,
        1.0
      ],
      "min": [
        -1.0,
        -1.0,
        -1.0,
        1.0
      ],
      "type": "VEC4"
    },
    {
      "bufferView": 1,
      "componentType": 5126,
      "count": 3074,
      "max": [
        0.9903849959373474,
        0.986329197883606
      ],
      "min": [
        0.002940993756055832,
        0.0018430352210998535
      ],
      "type": "VEC2"
    },
    {
      "bufferView": 1,
      "byteOffset": 24592,
      "componentType": 5126,
      "count": 3074,
      "max": [
        0.9903849959373474,
        0.986329197883606
      ],
      "min": [
        0.002940993756055832,
        0.0018430352210998535
      ],
      "type": "VEC2"
    },
    {
      "bufferView": 1,
      "byteOffset": 49184,
      "componentType": 5126,
      "count": 3074,
      "max": [
        0.9903849959373474,
        0.986329197883606
      ],
      "min": [
        0.002940993756055832,
        0.0018430352210998535
      ],
      "type": "VEC2"
    },
    {
      "bufferView": 0,
      "componentType": 5125,
      "count": 7704,
      "type": "SCALAR"
    }
  ],
  "asset": {
    "extras": {
      "author": "Unity Fan youtube channel (https://sketchfab.com/unityfan777)",
      "license": "SKETCHFAB Standard (https://sketchfab.com/licenses)",
      "source": "https://sketchfab.com/3d-models/free-tiny-house-public-domain-cc0-56e96d85447a4bf495bf5cc1d478ba47",
      "title": "FREE tiny house - public domain (CC0)"
    },
    "generator": "Sketchfab-15.50.0",
    "version": "2.0"
  },
  "bufferViews": [
    {
      "buffer": 0,
      "byteLength": 30816,
      "name": "floatBufferViews",
      "target": 34963
    },
    {
      "buffer": 0,
      "byteLength": 73776,
      "byteOffset": 30816,
      "byteStride": 8,
      "name": "floatBufferViews",
      "target": 34962
    },
    {
      "buffer": 0,
      "byteLength": 73776,
      "byteOffset": 104592,
      "byteStride": 12,
      "name": "floatBufferViews",
      "target": 34962
    },
    {
      "buffer": 0,
      "byteLength": 49184,
      "byteOffset": 178368,
      "byteStride": 16,
      "name": "floatBufferViews",
      "target": 34962
    }
  ],
  "buffers": [
    {
      "byteLength": 227552,
      "uri": "scene.bin"
    }
  ],
  "extensionsRequired": [
    "KHR_materials_pbrSpecularGlossiness"
  ],
  "extensionsUsed": [
    "KHR_materials_pbrSpecularGlossiness"
  ],
  "images": [
    {
      "uri": "textures/test_house_diffuse.jpeg"
    },
    {
      "uri": "textures/test_house_specularGlossiness.png"
    },
    {
      "uri": "textures/test_house_normal.png"
    }
  ],
  "materials": [
    {
      "doubleSided": true,
      "extensions": {
        "KHR_materials_pbrSpecularGlossiness": {
          "diffuseFactor": [
            1.0,
            1.0,
            1.0,
            1.0
          ],
          "diffuseTexture": {
            "index": 0
          },
          "glossinessFactor": 1.0,
          "specularFactor": [
            1.0,
            1.0,
            1.0
          ],
          "specularGlossinessTexture": {
            "index": 1
          }
        }
      },
      "name": "test_house",
      "normalTexture": {
        "index": 2
      }
    }
  ],
  "meshes": [
    {
      "name": "test_house_walls_1_test_house_0",
      "primitives": [
        {
          "attributes": {
            "NORMAL": 1,
            "POSITION": 0,
            "TANGENT": 2,
            "TEXCOORD_0": 3,
            "TEXCOORD_1": 4,
            "TEXCOORD_2": 5
          },
          "indices": 6,
          "material": 0,
          "mode": 4
        }
      ]
    }
  ],
  "nodes": [
    {
      "children": [
        1
      ],
      "matrix": [
        1.0,
        0.0,
        0.0,
        0.0,
        0.0,
        2.220446049250313e-16,
        -1.0,
        0.0,
        0.0,
        1.0,
        2.220446049250313e-16,
        0.0,
        0.0,
        0.0,
        0.0,
        1.0
      ],
      "name": "Sketchfab_model"
    },
    {
      "children": [
        2
      ],
      "matrix": [
        1.0,
        0.0,
        0.0,
        0.0,
        0.0,
        0.0,
        1.0,
        0.0,
        0.0,
        -1.0,
        0.0,
        0.0,
        0.0,
        0.0,
        0.0,
        1.0
      ],
      "name": "9859aafcb144475795a5b954443e93d4.fbx"
    },
    {
      "children": [
        3
      ],
      "name": "RootNode"
    },
    {
      "children": [
        4
      ],
      "matrix": [
        100.0,
        0.0,
        0.0,
        0.0,
        0.0,
        -1.629206793918314e-05,
        -99.99999999999868,
        0.0,
        0.0,
        99.99999999999868,
        -1.629206793918314e-05,
        0.0,
        0.0,
        0.0,
        0.0,
        1.0
      ],
      "name": "test_house_walls_1"
    },
    {
      "mesh": 0,
      "name": "test_house_walls_1_test_house_0"
    }
  ],
  "samplers": [
    {
      "magFilter": 9729,
      "minFilter": 9987,
      "wrapS": 10497,
      "wrapT": 10497
    }
  ],
  "scene": 0,
  "scenes": [
    {
      "name": "Sketchfab_Scene",
      "nodes": [
        0
      ]
    }
  ],
  "textures": [
    {
      "sampler": 0,
      "source": 0
    },
    {
      "sampler": 0,
      "source": 1
    },
    {
      "sampler": 0,
      "source": 2
    }
  ]
}
