{
  "accessors": [
    {
      "bufferView": 2,
      "componentType": 5126,
      "count": 24,
      "max": [
        1.0,
        1.0,
        1.0
      ],
      "min": [
        -1.0,
        -1.0,
        -1.0
      ],
      "type": "VEC3"
    },
    {
      "bufferView": 2,
      "byteOffset": 288,
      "componentType": 5126,
      "count": 24,
      "max": [
        1.0,
        1.0,
        1.0
      ],
      "min": [
        -1.0,
        -1.0,
        -1.0
      ],
      "type": "VEC3"
    },
    {
      "bufferView": 1,
      "componentType": 5126,
      "count": 24,
      "max": [
        0.7499567270278931,
        0.9999133944511414
      ],
      "min": [
        8.658754813950509e-05,
        8.660554885864258e-05
      ],
      "type": "VEC2"
    },
    {
      "bufferView": 0,
      "componentType": 5125,
      "count": 36,
      "type": "SCALAR"
    },
    {
      "bufferView": 2,
      "byteOffset": 576,
      "componentType": 5126,
      "count": 65532,
      "max": [
        2.9509029388427734,
        2.2582054138183594,
        2.8530142307281494
      ],
      "min": [
        -2.8429770469665527,
        -2.8631858825683594,
        -3.0458147525787354
      ],
      "type": "VEC3"
    },
    {
      "bufferView": 2,
      "byteOffset": 786960,
      "componentType": 5126,
      "count": 65532,
      "max": [
        0.9896652698516846,
        0.7625147700309753,
        0.999998152256012
      ],
      "min": [
        -0.9999503493309021,
        -0.9889454245567322,
        -0.9995400905609131
      ],
      "type": "VEC3"
    },
    {
      "bufferView": 1,
      "byteOffset": 192,
      "componentType": 5126,
      "count": 65532,
      "max": [
        0.9931439757347107,
        0.9957510232925415
      ],
      "min": [
        0.002088000066578388,
        0.0034019947052001953
      ],
      "type": "VEC2"
    },
    {
      "bufferView": 0,
      "byteOffset": 144,
      "componentType": 5125,
      "count": 297585,
      "type": "SCALAR"
    },
    {
      "bufferView": 2,
      "byteOffset": 1573344,
      "componentType": 5126,
      "count": 65532,
      "max": [
        2.9459760189056396,
        2.875774383544922,
        2.8489251136779785
      ],
      "min": [
        -2.835080146789551,
        -2.90545654296875,
        -3.0467498302459717
      ],
      "type": "VEC3"
    },
    {
      "bufferView": 2,
      "byteOffset": 2359728,
      "componentType": 5126,
      "count": 65532,
      "max": [
        0.9876236319541931,
        0.9759376049041748,
        0.9999947547912598
      ],
      "min": [
        -0.9981989860534668,
        -0.9965646266937256,
        -0.999996542930603
      ],
      "type": "VEC3"
    },
    {
      "bufferView": 1,
      "byteOffset": 524448,
      "componentType": 5126,
      "count": 65532,
      "max": [
        0.9988510012626648,
        0.9979529976844788
      ],
      "min": [
        0.001155999954789877,
        0.00038498640060424805
      ],
      "type": "VEC2"
    },
    {
      "bufferView": 0,
      "byteOffset": 1190484,
      "componentType": 5125,
      "count": 286173,
      "type": "SCALAR"
    },
    {
      "bufferView": 2,
      "byteOffset": 3146112,
      "componentType": 5126,
      "count": 65532,
      "max": [
        2.976824998855591,
        2.980632781982422,
        2.849950075149536
      ],
      "min": [
        -2.8438971042633057,
        -2.877284049987793,
        -3.046217918395996
      ],
      "type": "VEC3"
    },
    {
      "bufferView": 2,
      "byteOffset": 3932496,
      "componentType": 5126,
      "count": 65532,
      "max": [
        0.9999951720237732,
        0.999996542930603,
        0.9997856020927429
      ],
      "min": [
        -0.9999999403953552,
        -0.9981103539466858,
        -0.9999812245368958
      ],
      "type": "VEC3"
    },
    {
      "bufferView": 1,
      "byteOffset": 1048704,
      "componentType": 5126,
      "count": 65532,
      "max": [
        0.9963750243186951,
        0.9964820146560669
      ],
      "min": [
        0.0003760000108741224,
        0.0003470182418823242
      ],
      "type": "VEC2"
    },
    {
      "bufferView": 0,
      "byteOffset": 2335176,
      "componentType": 5125,
      "count": 282102,
      "type": "SCALAR"
    },
    {
      "bufferView": 2,
      "byteOffset": 4718880,
      "componentType": 5126,
      "count": 65532,
      "max": [
        2.972134828567505,
        2.9790515899658203,
        2.8528661727905273
      ],
      "min": [
        -2.8439550399780273,
        -2.9065752029418945,
        -3.044229745864868
      ],
      "type": "VEC3"
    },
    {
      "bufferView": 2,
      "byteOffset": 5505264,
      "componentType": 5126,
      "count": 65532,
      "max": [
        0.9998977780342102,
        0.9999997615814209,
        0.9999298453330994
      ],
      "min": [
        -0.9999749660491943,
        -0.9985529184341431,
        -0.998309314250946
      ],
      "type": "VEC3"
    },
    {
      "bufferView": 1,
      "byteOffset": 1572960,
      "componentType": 5126,
      "count": 65532,
      "max": [
        0.9979469776153564,
        0.9951850175857544
      ],
      "min": [
        0.001825000043027103,
        0.00029200315475463867
      ],
      "type": "VEC2"
    },
    {
      "bufferView": 0,
      "byteOffset": 3463584,
      "componentType": 5125,
      "count": 275838,
      "type": "SCALAR"
    },
    {
      "bufferView": 2,
      "byteOffset": 6291648,
      "componentType": 5126,
      "count": 65532,
      "max": [
        2.9780378341674805,
        2.9799442291259766,
        2.8502931594848633
      ],
      "min": [
        -2.841132164001465,
        -2.9128456115722656,
        -3.046938896179199
      ],
      "type": "VEC3"
    },
    {
      "bufferView": 2,
      "byteOffset": 7078032,
      "componentType": 5126,
      "count": 65532,
      "max": [
        0.9998496770858765,
        0.9999967217445374,
        0.9998944997787476
      ],
      "min": [
        -0.9999503493309021,
        -0.9978554844856262,
        -0.9999958276748657
      ],
      "type": "VEC3"
    },
    {
      "bufferView": 1,
      "byteOffset": 2097216,
      "componentType": 5126,
      "count": 65532,
      "max": [
        0.996288001537323,
        0.9992520213127136
      ],
      "min": [
        0.0002730000123847276,
        0.0002880096435546875
      ],
      "type": "VEC2"
    },
    {
      "bufferView": 0,
      "byteOffset": 4566936,
      "componentType": 5125,
      "count": 248211,
      "type": "SCALAR"
    },
    {
      "bufferView": 2,
      "byteOffset": 7864416,
      "componentType": 5126,
      "count": 65532,
      "max": [
        2.9767229557037354,
        2.979482650756836,
        2.85079026222229
      ],
      "min": [
        -2.8438971042633057,
        -2.9144420623779297,
        -3.046938896179199
      ],
      "type": "VEC3"
    },
    {
      "bufferView": 2,
      "byteOffset": 8650800,
      "componentType": 5126,
      "count": 65532,
      "max": [
        0.9999809861183167,
        0.999996542930603,
        0.9999755024909973
      ],
      "min": [
        -0.9999939799308777,
        -0.9998044371604919,
        -0.999996542930603
      ],
      "type": "VEC3"
    },
    {
      "bufferView": 1,
      "byteOffset": 2621472,
      "componentType": 5126,
      "count": 65532,
      "max": [
        0.998773992061615,
        0.9992120265960693
      ],
      "min": [
        0.00030300000798888505,
        0.00028699636459350586
      ],
      "type": "VEC2"
    },
    {
      "bufferView": 0,
      "byteOffset": 5559780,
      "componentType": 5125,
      "count": 185874,
      "type": "SCALAR"
    },
    {
      "bufferView": 2,
      "byteOffset": 9437184,
      "componentType": 5126,
      "count": 65534,
      "max": [
        2.9775218963623047,
        2.9800891876220703,
        2.7582690715789795
      ],
      "min": [
        -2.8439550399780273,
        -2.913919448852539,
        -3.0464158058166504
      ],
      "type": "VEC3"
    },
    {
      "bufferView": 2,
      "byteOffset": 10223592,
      "componentType": 5126,
      "count": 65534,
      "max": [
        0.9999951720237732,
        0.9999975562095642,
        0.9997462034225464
      ],
      "min": [
        -0.9999999403953552,
        -0.9999681711196899,
        -0.9999858140945435
      ],
      "type": "VEC3"
    },
    {
      "bufferView": 1,
      "byteOffset": 3145728,
      "componentType": 5126,
      "count": 65534,
      "max": [
        0.9985870122909546,
        0.9992550015449524
      ],
      "min": [
        0.00026699999580159783,
        0.00026798248291015625
      ],
      "type": "VEC2"
    },
    {
      "bufferView": 0,
      "byteOffset": 6303276,
      "componentType": 5125,
      "count": 119364,
      "type": "SCALAR"
    },
    {
      "bufferView": 2,
      "byteOffset": 11010000,
      "componentType": 5126,
      "count": 49774,
      "max": [
        2.9747068881988525,
        2.979269027709961,
        2.8527660369873047
      ],
      "min": [
        -2.8435781002044678,
        -2.9144601821899414,
        -3.045536756515503
      ],
      "type": "VEC3"
    },
    {
      "bufferView": 2,
      "byteOffset": 11607288,
      "componentType": 5126,
      "count": 49774,
      "max": [
        0.9995379447937012,
        0.9999978542327881,
        0.9999729990959167
      ],
      "min": [
        -0.9998818039894104,
        -0.9998449683189392,
        -0.9998409152030945
      ],
      "type": "VEC3"
    },
    {
      "bufferView": 1,
      "byteOffset": 3670000,
      "componentType": 5126,
      "count": 49774,
      "max": [
        0.9966970086097717,
        0.9991819858551025
      ],
      "min": [
        0.0002770000137388706,
        0.00026601552963256836
      ],
      "type": "VEC2"
    },
    {
      "bufferView": 0,
      "byteOffset": 6780732,
      "componentType": 5125,
      "count": 71103,
      "type": "SCALAR"
    },
    {
      "bufferView": 2,
      "byteOffset": 12204576,
      "componentType": 5126,
      "count": 65532,
      "max": [
        2.925015926361084,
        2.9263839721679688,
        2.850813150405884
      ],
      "min": [
        -2.7733120918273926,
        -2.901547431945801,
        -3.0466837882995605
      ],
      "type": "VEC3"
    },
    {
      "bufferView": 2,
      "byteOffset": 12990960,
      "componentType": 5126,
      "count": 65532,
      "max": [
        0.9997780919075012,
        0.9999924898147583,
        0.9989091157913208
      ],
      "min": [
        -0.9717454314231873,
        -0.9950869679450989,
        -0.9998577833175659
      ],
      "type": "VEC3"
    },
    {
      "bufferView": 1,
      "byteOffset": 4068192,
      "componentType": 5126,
      "count": 65532,
      "max": [
        1.9958059787750244,
        0.9958739876747131
      ],
      "min": [
        1.0003479719161987,
        0.00037401914596557617
      ],
      "type": "VEC2"
    },
    {
      "bufferView": 0,
      "byteOffset": 7065144,
      "componentType": 5125,
      "count": 296736,
      "type": "SCALAR"
    },
    {
      "bufferView": 2,
      "byteOffset": 13777344,
      "componentType": 5126,
      "count": 65532,
      "max": [
        2.9280848503112793,
        2.9745864868164063,
        2.8514952659606934
      ],
      "min": [
        -2.6831741333007813,
        -2.9103574752807617,
        -3.0469179153442383
      ],
      "type": "VEC3"
    },
    {
      "bufferView": 2,
      "byteOffset": 14563728,
      "componentType": 5126,
      "count": 65532,
      "max": [
        0.9859315752983093,
        0.9990643262863159,
        0.9987250566482544
      ],
      "min": [
        -0.9330463409423828,
        -0.9997511506080627,
        -0.9999495148658752
      ],
      "type": "VEC3"
    },
    {
      "bufferView": 1,
      "byteOffset": 4592448,
      "componentType": 5126,
      "count": 65532,
      "max": [
        1.9982190132141113,
        0.9956719875335693
      ],
      "min": [
        1.0043460130691528,
        0.00035202503204345703
      ],
      "type": "VEC2"
    },
    {
      "bufferView": 0,
      "byteOffset": 8252088,
      "componentType": 5125,
      "count": 283074,
      "type": "SCALAR"
    },
    {
      "bufferView": 2,
      "byteOffset": 15350112,
      "componentType": 5126,
      "count": 65532,
      "max": [
        2.9677958488464355,
        2.977254867553711,
        2.8495712280273438
      ],
      "min": [
        -2.74868106842041,
        -2.9149951934814453,
        -3.0440127849578857
      ],
      "type": "VEC3"
    },
    {
      "bufferView": 2,
      "byteOffset": 16136496,
      "componentType": 5126,
      "count": 65532,
      "max": [
        0.9930527210235596,
        0.9998831152915955,
        0.9987276196479797
      ],
      "min": [
        -0.9925425052642822,
        -0.9999596476554871,
        -0.9992116689682007
      ],
      "type": "VEC3"
    },
    {
      "bufferView": 1,
      "byteOffset": 5116704,
      "componentType": 5126,
      "count": 65532,
      "max": [
        1.9982529878616333,
        0.9988390207290649
      ],
      "min": [
        1.0003349781036377,
        0.0003160238265991211
      ],
      "type": "VEC2"
    },
    {
      "bufferView": 0,
      "byteOffset": 9384384,
      "componentType": 5125,
      "count": 276768,
      "type": "SCALAR"
    },
    {
      "bufferView": 2,
      "byteOffset": 16922880,
      "componentType": 5126,
      "count": 65532,
      "max": [
        2.9526278972625732,
        2.9796714782714844,
        2.8488800525665283
      ],
      "min": [
        -2.8255159854888916,
        -2.912947654724121,
        -3.0468368530273438
      ],
      "type": "VEC3"
    },
    {
      "bufferView": 2,
      "byteOffset": 17709264,
      "componentType": 5126,
      "count": 65532,
      "max": [
        0.9948163628578186,
        0.9993612170219421,
        0.9997003674507141
      ],
      "min": [
        -0.9963517189025879,
        -0.9999157786369324,
        -0.9994528293609619
      ],
      "type": "VEC3"
    },
    {
      "bufferView": 1,
      "byteOffset": 5640960,
      "componentType": 5126,
      "count": 65532,
      "max": [
        1.9975930452346802,
        0.9989479780197144
      ],
      "min": [
        1.0003069639205933,
        0.00032001733779907227
      ],
      "type": "VEC2"
    },
    {
      "bufferView": 0,
      "byteOffset": 10491456,
      "componentType": 5125,
      "count": 263550,
      "type": "SCALAR"
    },
    {
      "bufferView": 2,
      "byteOffset": 18495648,
      "componentType": 5126,
      "count": 65532,
      "max": [
        2.9780378341674805,
        2.978933334350586,
        2.8502931594848633
      ],
      "min": [
        -2.841008186340332,
        -2.9149951934814453,
        -3.0394177436828613
      ],
      "type": "VEC3"
    },
    {
      "bufferView": 2,
      "byteOffset": 19282032,
      "componentType": 5126,
      "count": 65532,
      "max": [
        0.9997370839118958,
        0.9999842047691345,
        0.9974134564399719
      ],
      "min": [
        -0.9988174438476563,
        -0.9999593496322632,
        -0.9988673329353333
      ],
      "type": "VEC3"
    },
    {
      "bufferView": 1,
      "byteOffset": 6165216,
      "componentType": 5126,
      "count": 65532,
      "max": [
        1.9984270334243774,
        0.9984509944915771
      ],
      "min": [
        1.0002739429473877,
        0.00028699636459350586
      ],
      "type": "VEC2"
    },
    {
      "bufferView": 0,
      "byteOffset": 11545656,
      "componentType": 5125,
      "count": 214794,
      "type": "SCALAR"
    },
    {
      "bufferView": 2,
      "byteOffset": 20068416,
      "componentType": 5126,
      "count": 65533,
      "max": [
        2.9667530059814453,
        2.980632781982422,
        2.7803311347961426
      ],
      "min": [
        -2.843792200088501,
        -2.914278030395508,
        -3.041811943054199
      ],
      "type": "VEC3"
    },
    {
      "bufferView": 2,
      "byteOffset": 20854812,
      "componentType": 5126,
      "count": 65533,
      "max": [
        0.9999807476997375,
        0.9999955296516418,
        0.9993897676467896
      ],
      "min": [
        -0.9998946189880371,
        -0.9999229907989502,
        -0.9986374974250793
      ],
      "type": "VEC3"
    },
    {
      "bufferView": 1,
      "byteOffset": 6689472,
      "componentType": 5126,
      "count": 65533,
      "max": [
        1.9988319873809814,
        0.9987679719924927
      ],
      "min": [
        1.0002720355987549,
        0.00027698278427124023
      ],
      "type": "VEC2"
    },
    {
      "bufferView": 0,
      "byteOffset": 12404832,
      "componentType": 5125,
      "count": 138948,
      "type": "SCALAR"
    },
    {
      "bufferView": 2,
      "byteOffset": 21641208,
      "componentType": 5126,
      "count": 65533,
      "max": [
        2.9780378341674805,
        2.9800891876220703,
        2.846229076385498
      ],
      "min": [
        -2.8420610427856445,
        -2.911754608154297,
        -3.0462048053741455
      ],
      "type": "VEC3"
    },
    {
      "bufferView": 2,
      "byteOffset": 22427604,
      "componentType": 5126,
      "count": 65533,
      "max": [
        0.9999841451644897,
        0.9999699592590332,
        0.9999703168869019
      ],
      "min": [
        -0.9986196756362915,
        -0.9998902082443237,
        -0.9997241497039795
      ],
      "type": "VEC3"
    },
    {
      "bufferView": 1,
      "byteOffset": 7213736,
      "componentType": 5126,
      "count": 65533,
      "max": [
        1.9990170001983643,
        0.9993079900741577
      ],
      "min": [
        1.0002679824829102,
        0.0002689957618713379
      ],
      "type": "VEC2"
    },
    {
      "bufferView": 0,
      "byteOffset": 12960624,
      "componentType": 5125,
      "count": 129681,
      "type": "SCALAR"
    },
    {
      "bufferView": 2,
      "byteOffset": 23214000,
      "componentType": 5126,
      "count": 44679,
      "max": [
        2.9765119552612305,
        2.9800891876220703,
        2.852525234222412
      ],
      "min": [
        -2.8438971042633057,
        -2.9149951934814453,
        -3.046160936355591
      ],
      "type": "VEC3"
    },
    {
      "bufferView": 2,
      "byteOffset": 23750148,
      "componentType": 5126,
      "count": 44679,
      "max": [
        0.9999807476997375,
        0.9999861717224121,
        0.9998757839202881
      ],
      "min": [
        -0.9999092221260071,
        -0.9999593496322632,
        -0.9996855854988098
      ],
      "type": "VEC3"
    },
    {
      "bufferView": 1,
      "byteOffset": 7738000,
      "componentType": 5126,
      "count": 44679,
      "max": [
        1.9990689754486084,
        0.9984300136566162
      ],
      "min": [
        1.0002679824829102,
        0.0002689957618713379
      ],
      "type": "VEC2"
    },
    {
      "bufferView": 0,
      "byteOffset": 13479348,
      "componentType": 5125,
      "count": 63735,
      "type": "SCALAR"
    }
  ],
  "asset": {
    "extras": {
      "author": "ffish.asia / floraZia.com (https://sketchfab.com/ffishAsia-and-floraZia)",
      "license": "CC0-1.0 (http://creativecommons.org/publicdomain/zero/1.0/)",
      "source": "https://sketchfab.com/3d-models/cc0-apple-malus-pumila-410b4f06e5e444168d4f6554de3380d2",
      "title": "CC0 リンゴ 🍎 林檎 Apple, Malus pumila"
    },
    "generator": "Sketchfab-16.62.0",
    "version": "2.0"
  },
  "bufferViews": [
    {
      "buffer": 0,
      "byteLength": 13734288,
      "name": "floatBufferViews",
      "target": 34963
    },
    {
      "buffer": 0,
      "byteLength": 8095432,
      "byteOffset": 13734288,
      "byteStride": 8,
      "name": "floatBufferViews",
      "target": 34962
    },
    {
      "buffer": 0,
      "byteLength": 24286296,
      "byteOffset": 21829720,
      "byteStride": 12,
      "name": "floatBufferViews",
      "target": 34962
    }
  ],
  "buffers": [
    {
      "byteLength": 46116016,
      "uri": "scene.bin"
    }
  ],
  "extensionsUsed": [
    "KHR_materials_unlit"
  ],
  "images": [
    {
      "uri": "textures/Material.001_baseColor.jpeg"
    },
    {
      "uri": "textures/PL-MRKT003-W02_tex0_baseColor.jpeg"
    },
    {
      "uri": "textures/PL-MRKT003-W02_tex1_baseColor.jpeg"
    }
  ],
  "materials": [
    {
      "doubleSided": true,
      "extensions": {
        "KHR_materials_unlit": {}
      },
      "name": "Material.001",
      "pbrMetallicRoughness": {
        "baseColorTexture": {
          "index": 0
        },
        "metallicFactor": 0.0
      }
    },
    {
      "doubleSided": true,
      "extensions": {
        "KHR_materials_unlit": {}
      },
      "name": "PL-MRKT003-W02_tex0",
      "pbrMetallicRoughness": {
        "baseColorTexture": {
          "index": 1
        },
        "metallicFactor": 0.0
      }
    },
    {
      "doubleSided": true,
      "extensions": {
        "KHR_materials_unlit": {}
      },
      "name": "PL-MRKT003-W02_tex1",
      "pbrMetallicRoughness": {
        "baseColorTexture": {
          "index": 2
        },
        "metallicFactor": 0.0
      }
    }
  ],
  "meshes": [
    {
      "name": "Object_0",
      "primitives": [
        {
          "attributes": {
            "NORMAL": 1,
            "POSITION": 0,
            "TEXCOORD_0": 2
          },
          "indices": 3,
          "material": 0,
          "mode": 4
        }
      ]
    },
    {
      "name": "Object_1",
      "primitives": [
        {
          "attributes": {
            "NORMAL": 5,
            "POSITION": 4,
            "TEXCOORD_0": 6
          },
          "indices": 7,
          "material": 1,
          "mode": 4
        }
      ]
    },
    {
      "name": "Object_2",
      "primitives": [
        {
          "attributes": {
            "NORMAL": 9,
            "POSITION": 8,
            "TEXCOORD_0": 10
          },
          "indices": 11,
          "material": 1,
          "mode": 4
        }
      ]
    },
    {
      "name": "Object_3",
      "primitives": [
        {
          "attributes": {
            "NORMAL": 13,
            "POSITION": 12,
            "TEXCOORD_0": 14
          },
          "indices": 15,
          "material": 1,
          "mode": 4
        }
      ]
    },
    {
      "name": "Object_4",
      "primitives": [
        {
          "attributes": {
            "NORMAL": 17,
            "POSITION": 16,
            "TEXCOORD_0": 18
          },
          "indices": 19,
          "material": 1,
          "mode": 4
        }
      ]
    },
    {
      "name": "Object_5",
      "primitives": [
        {
          "attributes": {
            "NORMAL": 21,
            "POSITION": 20,
            "TEXCOORD_0": 22
          },
          "indices": 23,
          "material": 1,
          "mode": 4
        }
      ]
    },
    {
      "name": "Object_6",
      "primitives": [
        {
          "attributes": {
            "NORMAL": 25,
            "POSITION": 24,
            "TEXCOORD_0": 26
          },
          "indices": 27,
          "material": 1,
          "mode": 4
        }
      ]
    },
    {
      "name": "Object_7",
      "primitives": [
        {
          "attributes": {
            "NORMAL": 29,
            "POSITION": 28,
            "TEXCOORD_0": 30
          },
          "indices": 31,
          "material": 1,
          "mode": 4
        }
      ]
    },
    {
      "name": "Object_8",
      "primitives": [
        {
          "attributes": {
            "NORMAL": 33,
            "POSITION": 32,
            "TEXCOORD_0": 34
          },
          "indices": 35,
          "material": 1,
          "mode": 4
        }
      ]
    },
    {
      "name": "Object_9",
      "primitives": [
        {
          "attributes": {
            "NORMAL": 37,
            "POSITION": 36,
            "TEXCOORD_0": 38
          },
          "indices": 39,
          "material": 2,
          "mode": 4
        }
      ]
    },
    {
      "name": "Object_10",
      "primitives": [
        {
          "attributes": {
            "NORMAL": 41,
            "POSITION": 40,
            "TEXCOORD_0": 42
          },
          "indices": 43,
          "material": 2,
          "mode": 4
        }
      ]
    },
    {
      "name": "Object_11",
      "primitives": [
        {
          "attributes": {
            "NORMAL": 45,
            "POSITION": 44,
            "TEXCOORD_0": 46
          },
          "indices": 47,
          "material": 2,
          "mode": 4
        }
      ]
    },
    {
      "name": "Object_12",
      "primitives": [
        {
          "attributes": {
            "NORMAL": 49,
            "POSITION": 48,
            "TEXCOORD_0": 50
          },
          "indices": 51,
          "material": 2,
          "mode": 4
        }
      ]
    },
    {
      "name": "Object_13",
      "primitives": [
        {
          "attributes": {
            "NORMAL": 53,
            "POSITION": 52,
            "TEXCOORD_0": 54
          },
          "indices": 55,
          "material": 2,
          "mode": 4
        }
      ]
    },
    {
      "name": "Object_14",
      "primitives": [
        {
          "attributes": {
            "NORMAL": 57,
            "POSITION": 56,
            "TEXCOORD_0": 58
          },
          "indices": 59,
          "material": 2,
          "mode": 4
        }
      ]
    },
    {
      "name": "Object_15",
      "primitives": [
        {
          "attributes": {
            "NORMAL": 61,
            "POSITION": 60,
            "TEXCOORD_0": 62
          },
          "indices": 63,
          "material": 2,
          "mode": 4
        }
      ]
    },
    {
      "name": "Object_16",
      "primitives": [
        {
          "attributes": {
            "NORMAL": 65,
            "POSITION": 64,
            "TEXCOORD_0": 66
          },
          "indices": 67,
          "material": 2,
          "mode": 4
        }
      ]
    }
  ],
  "nodes": [
    {
      "children": [
        1
      ],
      "matrix": [
        1.0,
        0.0,
        0.0,
        0.0,
        0.0,
        2.220446049250313e-16,
        -1.0,
        0.0,
        0.0,
        1.0,
        2.220446049250313e-16,
        0.0,
        0.0,
        0.0,
        0.0,
        1.0
      ],
      "name": "Sketchfab_model"
    },
    {
      "children": [
        2
      ],
      "name": "root"
    },
    {
      "children": [
        3,
        5
      ],
      "matrix": [
        1.0,
        0.0,
        0.0,
        0.0,
        0.0,
        2.220446049250313e-16,
        1.0,
        0.0,
        0.0,
        -1.0,
        2.220446049250313e-16,
        0.0,
        0.0,
        0.0,
        0.0,
        1.0
      ],
      "name": "GLTF_SceneRootNode"
    },
    {
      "children": [
        4
      ],
      "matrix": [
        -0.0004233383444605078,
        -0.2285469342330037,
        0.0008151779368167697,
        0.0,
        0.0010551280827136651,
        -0.0008171252534971838,
        -0.22854494335670153,
        0.0,
        0.22854599712318965,
        -0.00041956782501642256,
        0.0010566330441402396,
        0.0,
        4.703039169311523,
        0.015896320343017578,
        -0.00019154355686623603,
        1.0
      ],
      "name": "Cube_2"
    },
    {
      "mesh": 0,
      "name": "Object_4"
    },
    {
      "children": [
        6,
        7,
        8,
        9,
        10,
        11,
        12,
        13,
        14,
        15,
        16,
        17,
        18,
        19,
        20,
        21
      ],
      "matrix": [
        0.3883776807427691,
        0.5757030448883984,
        -0.7195337248573512,
        0.0,
        -0.888778220326848,
        0.027790550310508588,
        -0.45749421896465525,
        0.0,
        -0.2433845766960359,
        0.8171864471585818,
        0.5224655571488188,
        0.0,
        0.0,
        0.0,
        0.0,
        1.0
      ],
      "name": "PL-MRKT003-W02_5"
    },
    {
      "mesh": 1,
      "name": "Object_6"
    },
    {
      "mesh": 2,
      "name": "Object_7"
    },
    {
      "mesh": 3,
      "name": "Object_8"
    },
    {
      "mesh": 4,
      "name": "Object_9"
    },
    {
      "mesh": 5,
      "name": "Object_10"
    },
    {
      "mesh": 6,
      "name": "Object_11"
    },
    {
      "mesh": 7,
      "name": "Object_12"
    },
    {
      "mesh": 8,
      "name": "Object_13"
    },
    {
      "mesh": 9,
      "name": "Object_14"
    },
    {
      "mesh": 10,
      "name": "Object_15"
    },
    {
      "mesh": 11,
      "name": "Object_16"
    },
    {
      "mesh": 12,
      "name": "Object_17"
    },
    {
      "mesh": 13,
      "name": "Object_18"
    },
    {
      "mesh": 14,
      "name": "Object_19"
    },
    {
      "mesh": 15,
      "name": "Object_20"
    },
    {
      "mesh": 16,
      "name": "Object_21"
    }
  ],
  "samplers": [
    {
      "magFilter": 9729,
      "minFilter": 9987,
      "wrapS": 10497,
      "wrapT": 10497
    }
  ],
  "scene": 0,
  "scenes": [
    {
      "name": "Sketchfab_Scene",
      "nodes": [
        0
      ]
    }
  ],
  "textures": [
    {
      "sampler": 0,
      "source": 0
    },
    {
      "sampler": 0,
      "source": 1
    },
    {
      "sampler": 0,
      "source": 2
    }
  ]
}
