{
  "accessors": [
    {
      "bufferView": 2,
      "componentType": 5126,
      "count": 24,
      "max": [
        1.0,
        1.0,
        1.0
      ],
      "min": [
        -1.0,
        -1.0,
        -1.0
      ],
      "type": "VEC3"
    },
    {
      "bufferView": 2,
      "byteOffset": 288,
      "componentType": 5126,
      "count": 24,
      "max": [
        1.0,
        1.0,
        1.0
      ],
      "min": [
        -1.0,
        -1.0,
        -1.0
      ],
      "type": "VEC3"
    },
    {
      "bufferView": 1,
      "componentType": 5126,
      "count": 24,
      "max": [
        0.7499567270278931,
        0.9999133944511414
      ],
      "min": [
        8.658754813950509e-05,
        8.660554885864258e-05
      ],
      "type": "VEC2"
    },
    {
      "bufferView": 0,
      "componentType": 5125,
      "count": 36,
      "type": "SCALAR"
    },
    {
      "bufferView": 2,
      "byteOffset": 576,
      "componentType": 5126,
      "count": 65532,
      "max": [
        0.9830968379974365,
        1.5079050064086914,
        1.8154034614562988
      ],
      "min": [
        -0.6705061197280884,
        -1.7360506057739258,
        -1.267823576927185
      ],
      "type": "VEC3"
    },
    {
      "bufferView": 2,
      "byteOffset": 786960,
      "componentType": 5126,
      "count": 65532,
      "max": [
        0.9999570250511169,
        1.0,
        0.9837738275527954
      ],
      "min": [
        -0.9999951720237732,
        -0.986717939376831,
        -0.9996767640113831
      ],
      "type": "VEC3"
    },
    {
      "bufferView": 1,
      "byteOffset": 192,
      "componentType": 5126,
      "count": 65532,
      "max": [
        0.9975749850273132,
        0.9811949729919434
      ],
      "min": [
        0.0002899999963119626,
        0.0002949833869934082
      ],
      "type": "VEC2"
    },
    {
      "bufferView": 0,
      "byteOffset": 144,
      "componentType": 5125,
      "count": 296313,
      "type": "SCALAR"
    },
    {
      "bufferView": 2,
      "byteOffset": 1573344,
      "componentType": 5126,
      "count": 65532,
      "max": [
        0.9727978706359863,
        1.5052604675292969,
        1.6073044538497925
      ],
      "min": [
        -0.6656671166419983,
        -1.7282781600952148,
        -1.2536855936050415
      ],
      "type": "VEC3"
    },
    {
      "bufferView": 2,
      "byteOffset": 2359728,
      "componentType": 5126,
      "count": 65532,
      "max": [
        0.9997057914733887,
        0.9995858073234558,
        0.9999579191207886
      ],
      "min": [
        -0.9999763369560242,
        -0.9634212851524353,
        -0.9999989867210388
      ],
      "type": "VEC3"
    },
    {
      "bufferView": 1,
      "byteOffset": 524448,
      "componentType": 5126,
      "count": 65532,
      "max": [
        0.9981669783592224,
        0.9970970153808594
      ],
      "min": [
        0.0002690000110305846,
        0.0002530217170715332
      ],
      "type": "VEC2"
    },
    {
      "bufferView": 0,
      "byteOffset": 1185396,
      "componentType": 5125,
      "count": 282063,
      "type": "SCALAR"
    },
    {
      "bufferView": 2,
      "byteOffset": 3146112,
      "componentType": 5126,
      "count": 65532,
      "max": [
        0.9547288417816162,
        1.4749622344970703,
        1.6038744449615479
      ],
      "min": [
        -0.6704671382904053,
        -1.704209327697754,
        -1.265465497970581
      ],
      "type": "VEC3"
    },
    {
      "bufferView": 2,
      "byteOffset": 3932496,
      "componentType": 5126,
      "count": 65532,
      "max": [
        0.9999873042106628,
        0.9999550580978394,
        0.9999827742576599
      ],
      "min": [
        -0.9999893307685852,
        -0.9804251194000244,
        -0.999997079372406
      ],
      "type": "VEC3"
    },
    {
      "bufferView": 1,
      "byteOffset": 1048704,
      "componentType": 5126,
      "count": 65532,
      "max": [
        0.9997410178184509,
        0.9983230233192444
      ],
      "min": [
        0.00029200001154094934,
        0.0006690025329589844
      ],
      "type": "VEC2"
    },
    {
      "bufferView": 0,
      "byteOffset": 2313648,
      "componentType": 5125,
      "count": 279210,
      "type": "SCALAR"
    },
    {
      "bufferView": 2,
      "byteOffset": 4718880,
      "componentType": 5126,
      "count": 65534,
      "max": [
        0.9755918979644775,
        1.4668645858764648,
        1.6057324409484863
      ],
      "min": [
        -0.6703241467475891,
        -1.7501192092895508,
        -1.2705345153808594
      ],
      "type": "VEC3"
    },
    {
      "bufferView": 2,
      "byteOffset": 5505288,
      "componentType": 5126,
      "count": 65534,
      "max": [
        0.9999934434890747,
        0.9989581108093262,
        0.9998397827148438
      ],
      "min": [
        -0.9999837875366211,
        -0.9998239874839783,
        -0.9999775290489197
      ],
      "type": "VEC3"
    },
    {
      "bufferView": 1,
      "byteOffset": 1572960,
      "componentType": 5126,
      "count": 65534,
      "max": [
        0.99931800365448,
        0.9968810081481934
      ],
      "min": [
        0.0002530000056140125,
        0.00025200843811035156
      ],
      "type": "VEC2"
    },
    {
      "bufferView": 0,
      "byteOffset": 3430488,
      "componentType": 5125,
      "count": 258495,
      "type": "SCALAR"
    },
    {
      "bufferView": 2,
      "byteOffset": 6291696,
      "componentType": 5126,
      "count": 65532,
      "max": [
        0.9832628965377808,
        1.4837913513183594,
        1.7300894260406494
      ],
      "min": [
        -0.6701761484146118,
        -1.709609031677246,
        -1.269121527671814
      ],
      "type": "VEC3"
    },
    {
      "bufferView": 2,
      "byteOffset": 7078080,
      "componentType": 5126,
      "count": 65532,
      "max": [
        0.999989926815033,
        0.9999569058418274,
        0.9999866485595703
      ],
      "min": [
        -0.9999786615371704,
        -0.9995120763778687,
        -0.9999687075614929
      ],
      "type": "VEC3"
    },
    {
      "bufferView": 1,
      "byteOffset": 2097232,
      "componentType": 5126,
      "count": 65532,
      "max": [
        0.9993469715118408,
        0.9975510239601135
      ],
      "min": [
        0.0002530000056140125,
        0.00024700164794921875
      ],
      "type": "VEC2"
    },
    {
      "bufferView": 0,
      "byteOffset": 4464468,
      "componentType": 5125,
      "count": 233937,
      "type": "SCALAR"
    },
    {
      "bufferView": 2,
      "byteOffset": 7864464,
      "componentType": 5126,
      "count": 65532,
      "max": [
        0.978442907333374,
        1.5184688568115234,
        1.8139424324035645
      ],
      "min": [
        -0.6704391241073608,
        -1.7535438537597656,
        -1.2664434909820557
      ],
      "type": "VEC3"
    },
    {
      "bufferView": 2,
      "byteOffset": 8650848,
      "componentType": 5126,
      "count": 65532,
      "max": [
        0.9999659657478333,
        0.9999566078186035,
        0.999943733215332
      ],
      "min": [
        -0.9999837875366211,
        -0.9999258518218994,
        -0.9999157786369324
      ],
      "type": "VEC3"
    },
    {
      "bufferView": 1,
      "byteOffset": 2621488,
      "componentType": 5126,
      "count": 65532,
      "max": [
        0.9992340207099915,
        0.9995840191841125
      ],
      "min": [
        0.0002460000105202198,
        0.00026100873947143555
      ],
      "type": "VEC2"
    },
    {
      "bufferView": 0,
      "byteOffset": 5400216,
      "componentType": 5125,
      "count": 208092,
      "type": "SCALAR"
    },
    {
      "bufferView": 2,
      "byteOffset": 9437232,
      "componentType": 5126,
      "count": 65532,
      "max": [
        0.9832528829574585,
        1.5124092102050781,
        1.815076470375061
      ],
      "min": [
        -0.6694781184196472,
        -1.7493019104003906,
        -1.2709345817565918
      ],
      "type": "VEC3"
    },
    {
      "bufferView": 2,
      "byteOffset": 10223616,
      "componentType": 5126,
      "count": 65532,
      "max": [
        0.9999831318855286,
        0.999984622001648,
        0.9998397827148438
      ],
      "min": [
        -0.9999895691871643,
        -0.9995781183242798,
        -0.9999884963035583
      ],
      "type": "VEC3"
    },
    {
      "bufferView": 1,
      "byteOffset": 3145744,
      "componentType": 5126,
      "count": 65532,
      "max": [
        0.9996780157089233,
        0.996986985206604
      ],
      "min": [
        0.0002500000118743628,
        0.0002480149269104004
      ],
      "type": "VEC2"
    },
    {
      "bufferView": 0,
      "byteOffset": 6232584,
      "componentType": 5125,
      "count": 123777,
      "type": "SCALAR"
    },
    {
      "bufferView": 2,
      "byteOffset": 11010000,
      "componentType": 5126,
      "count": 18226,
      "max": [
        0.9639098644256592,
        1.5049238204956055,
        1.815076470375061
      ],
      "min": [
        -0.6701271533966064,
        -1.7402992248535156,
        -1.241808533668518
      ],
      "type": "VEC3"
    },
    {
      "bufferView": 2,
      "byteOffset": 11228712,
      "componentType": 5126,
      "count": 18226,
      "max": [
        0.9997972249984741,
        0.9948011040687561,
        0.9968417882919312
      ],
      "min": [
        -0.9999551773071289,
        -0.9884868264198303,
        -0.9999209642410278
      ],
      "type": "VEC3"
    },
    {
      "bufferView": 1,
      "byteOffset": 3670000,
      "componentType": 5126,
      "count": 18226,
      "max": [
        0.9980300068855286,
        0.9979130029678345
      ],
      "min": [
        0.00025099999038502574,
        0.0002549886703491211
      ],
      "type": "VEC2"
    },
    {
      "bufferView": 0,
      "byteOffset": 6727692,
      "componentType": 5125,
      "count": 21972,
      "type": "SCALAR"
    },
    {
      "bufferView": 2,
      "byteOffset": 11447424,
      "componentType": 5126,
      "count": 65532,
      "max": [
        0.9590878486633301,
        1.4996891021728516,
        1.8104194402694702
      ],
      "min": [
        -0.6636371612548828,
        -1.7535476684570313,
        -1.2712165117263794
      ],
      "type": "VEC3"
    },
    {
      "bufferView": 2,
      "byteOffset": 12233808,
      "componentType": 5126,
      "count": 65532,
      "max": [
        1.0,
        1.0,
        1.0
      ],
      "min": [
        -1.0,
        -1.0,
        -1.0
      ],
      "type": "VEC3"
    },
    {
      "bufferView": 1,
      "byteOffset": 3815808,
      "componentType": 5126,
      "count": 65532,
      "max": [
        1.999292016029358,
        0.9991570115089417
      ],
      "min": [
        1.0002529621124268,
        0.0002620220184326172
      ],
      "type": "VEC2"
    },
    {
      "bufferView": 0,
      "byteOffset": 6815580,
      "componentType": 5125,
      "count": 291873,
      "type": "SCALAR"
    },
    {
      "bufferView": 2,
      "byteOffset": 13020192,
      "componentType": 5126,
      "count": 65532,
      "max": [
        0.9832628965377808,
        1.505803108215332,
        1.8154034614562988
      ],
      "min": [
        -0.6643661260604858,
        -1.724085807800293,
        -1.2470695972442627
      ],
      "type": "VEC3"
    },
    {
      "bufferView": 2,
      "byteOffset": 13806576,
      "componentType": 5126,
      "count": 65532,
      "max": [
        0.999999463558197,
        0.999936044216156,
        0.9997681975364685
      ],
      "min": [
        -0.9999955296516418,
        -0.9999882578849792,
        -0.9999820590019226
      ],
      "type": "VEC3"
    },
    {
      "bufferView": 1,
      "byteOffset": 4340064,
      "componentType": 5126,
      "count": 65532,
      "max": [
        1.999250054359436,
        0.9989050030708313
      ],
      "min": [
        1.0003160238265991,
        0.0002549886703491211
      ],
      "type": "VEC2"
    },
    {
      "bufferView": 0,
      "byteOffset": 7983072,
      "componentType": 5125,
      "count": 284493,
      "type": "SCALAR"
    },
    {
      "bufferView": 2,
      "byteOffset": 14592960,
      "componentType": 5126,
      "count": 65532,
      "max": [
        0.9714888334274292,
        1.5184688568115234,
        1.8131264448165894
      ],
      "min": [
        -0.6652741432189941,
        -1.7535820007324219,
        -1.2706605195999146
      ],
      "type": "VEC3"
    },
    {
      "bufferView": 2,
      "byteOffset": 15379344,
      "componentType": 5126,
      "count": 65532,
      "max": [
        0.9999736547470093,
        0.999936044216156,
        0.9990154504776001
      ],
      "min": [
        -0.9999870657920837,
        -0.9999978542327881,
        -0.999998927116394
      ],
      "type": "VEC3"
    },
    {
      "bufferView": 1,
      "byteOffset": 4864320,
      "componentType": 5126,
      "count": 65532,
      "max": [
        1.9993679523468018,
        0.9993889927864075
      ],
      "min": [
        1.000257968902588,
        0.00026702880859375
      ],
      "type": "VEC2"
    },
    {
      "bufferView": 0,
      "byteOffset": 9121044,
      "componentType": 5125,
      "count": 272427,
      "type": "SCALAR"
    },
    {
      "bufferView": 2,
      "byteOffset": 16165728,
      "componentType": 5126,
      "count": 65532,
      "max": [
        0.9601658582687378,
        1.5174808502197266,
        1.8095895051956177
      ],
      "min": [
        -0.6575131416320801,
        -1.7543020248413086,
        -1.2615635395050049
      ],
      "type": "VEC3"
    },
    {
      "bufferView": 2,
      "byteOffset": 16952112,
      "componentType": 5126,
      "count": 65532,
      "max": [
        0.9998816847801208,
        0.9999951124191284,
        0.9998763203620911
      ],
      "min": [
        -0.9999754428863525,
        -0.9999904036521912,
        -0.9997643232345581
      ],
      "type": "VEC3"
    },
    {
      "bufferView": 1,
      "byteOffset": 5388576,
      "componentType": 5126,
      "count": 65532,
      "max": [
        1.9990479946136475,
        0.9995840191841125
      ],
      "min": [
        1.000251054763794,
        0.00024700164794921875
      ],
      "type": "VEC2"
    },
    {
      "bufferView": 0,
      "byteOffset": 10210752,
      "componentType": 5125,
      "count": 267786,
      "type": "SCALAR"
    },
    {
      "bufferView": 2,
      "byteOffset": 17738496,
      "componentType": 5126,
      "count": 65532,
      "max": [
        0.983089804649353,
        1.5177898406982422,
        1.8151274919509888
      ],
      "min": [
        -0.6681131720542908,
        -1.7499618530273438,
        -1.2563875913619995
      ],
      "type": "VEC3"
    },
    {
      "bufferView": 2,
      "byteOffset": 18524880,
      "componentType": 5126,
      "count": 65532,
      "max": [
        0.9999897480010986,
        0.9999596476554871,
        0.9997681975364685
      ],
      "min": [
        -0.9999613761901855,
        -0.9999025464057922,
        -0.9999751448631287
      ],
      "type": "VEC3"
    },
    {
      "bufferView": 1,
      "byteOffset": 5912832,
      "componentType": 5126,
      "count": 65532,
      "max": [
        1.9995169639587402,
        0.9993420243263245
      ],
      "min": [
        1.0002570152282715,
        0.0002509951591491699
      ],
      "type": "VEC2"
    },
    {
      "bufferView": 0,
      "byteOffset": 11281896,
      "componentType": 5125,
      "count": 212409,
      "type": "SCALAR"
    },
    {
      "bufferView": 2,
      "byteOffset": 19311264,
      "componentType": 5126,
      "count": 65534,
      "max": [
        0.9832628965377808,
        1.5184688568115234,
        1.8073104619979858
      ],
      "min": [
        -0.6647921204566956,
        -1.7479515075683594,
        -1.261487603187561
      ],
      "type": "VEC3"
    },
    {
      "bufferView": 2,
      "byteOffset": 20097672,
      "componentType": 5126,
      "count": 65534,
      "max": [
        1.0,
        1.0,
        1.0
      ],
      "min": [
        -1.0,
        -0.9999904036521912,
        -1.0
      ],
      "type": "VEC3"
    },
    {
      "bufferView": 1,
      "byteOffset": 6437088,
      "componentType": 5126,
      "count": 65534,
      "max": [
        1.9996240139007568,
        0.9996190071105957
      ],
      "min": [
        1.0002479553222656,
        0.0002459883689880371
      ],
      "type": "VEC2"
    },
    {
      "bufferView": 0,
      "byteOffset": 12131532,
      "componentType": 5125,
      "count": 151923,
      "type": "SCALAR"
    },
    {
      "bufferView": 2,
      "byteOffset": 20884080,
      "componentType": 5126,
      "count": 65534,
      "max": [
        0.9832628965377808,
        1.5144996643066406,
        1.8154034614562988
      ],
      "min": [
        -0.6694651246070862,
        -1.7543020248413086,
        -1.2690085172653198
      ],
      "type": "VEC3"
    },
    {
      "bufferView": 2,
      "byteOffset": 21670488,
      "componentType": 5126,
      "count": 65534,
      "max": [
        1.0,
        1.0,
        1.0
      ],
      "min": [
        -1.0,
        -1.0,
        -1.0
      ],
      "type": "VEC3"
    },
    {
      "bufferView": 1,
      "byteOffset": 6961360,
      "componentType": 5126,
      "count": 65534,
      "max": [
        1.9996249675750732,
        0.9993240237236023
      ],
      "min": [
        1.000251054763794,
        0.00024700164794921875
      ],
      "type": "VEC2"
    },
    {
      "bufferView": 0,
      "byteOffset": 12739224,
      "componentType": 5125,
      "count": 103452,
      "type": "SCALAR"
    },
    {
      "bufferView": 2,
      "byteOffset": 22456896,
      "componentType": 5126,
      "count": 1895,
      "max": [
        0.9565387964248657,
        1.4925651550292969,
        1.6981995105743408
      ],
      "min": [
        -0.6682501435279846,
        -1.684896469116211,
        -1.2144585847854614
      ],
      "type": "VEC3"
    },
    {
      "bufferView": 2,
      "byteOffset": 22479636,
      "componentType": 5126,
      "count": 1895,
      "max": [
        0.9981215596199036,
        0.9564428329467773,
        0.9998763203620911
      ],
      "min": [
        -0.9997615814208984,
        -0.9443049430847168,
        -0.9996696710586548
      ],
      "type": "VEC3"
    },
    {
      "bufferView": 1,
      "byteOffset": 7485632,
      "componentType": 5126,
      "count": 1895,
      "max": [
        1.9934569597244263,
        0.9990019798278809
      ],
      "min": [
        1.0021250247955322,
        0.0002639889717102051
      ],
      "type": "VEC2"
    },
    {
      "bufferView": 0,
      "byteOffset": 13153032,
      "componentType": 5125,
      "count": 2103,
      "type": "SCALAR"
    }
  ],
  "asset": {
    "extras": {
      "author": "ffish.asia / floraZia.com (https://sketchfab.com/ffishAsia-and-floraZia)",
      "license": "CC0-1.0 (http://creativecommons.org/publicdomain/zero/1.0/)",
      "source": "https://sketchfab.com/3d-models/cc0-forest-green-tree-frog-a9c23391171c4e1abd859b05887e00af",
      "title": "CC0 モリアオガエル 🐸 ♂ Forest Green Tree Frog"
    },
    "generator": "Sketchfab-16.61.0",
    "version": "2.0"
  },
  "bufferViews": [
    {
      "buffer": 0,
      "byteLength": 13161444,
      "name": "floatBufferViews",
      "target": 34963
    },
    {
      "buffer": 0,
      "byteLength": 7500792,
      "byteOffset": 13161444,
      "byteStride": 8,
      "name": "floatBufferViews",
      "target": 34962
    },
    {
      "buffer": 0,
      "byteLength": 22502376,
      "byteOffset": 20662236,
      "byteStride": 12,
      "name": "floatBufferViews",
      "target": 34962
    }
  ],
  "buffers": [
    {
      "byteLength": 43164612,
      "uri": "scene.bin"
    }
  ],
  "extensionsUsed": [
    "KHR_materials_unlit"
  ],
  "images": [
    {
      "uri": "textures/Material.001_baseColor.jpeg"
    },
    {
      "uri": "textures/Q10987-files2_tex0_baseColor.jpeg"
    },
    {
      "uri": "textures/Q10987-files2_tex1_baseColor.jpeg"
    }
  ],
  "materials": [
    {
      "doubleSided": true,
      "extensions": {
        "KHR_materials_unlit": {}
      },
      "name": "Material.001",
      "pbrMetallicRoughness": {
        "baseColorTexture": {
          "index": 0
        },
        "metallicFactor": 0.0
      }
    },
    {
      "doubleSided": true,
      "extensions": {
        "KHR_materials_unlit": {}
      },
      "name": "Q10987-files2_tex0",
      "pbrMetallicRoughness": {
        "baseColorTexture": {
          "index": 1
        },
        "metallicFactor": 0.0
      }
    },
    {
      "doubleSided": true,
      "extensions": {
        "KHR_materials_unlit": {}
      },
      "name": "Q10987-files2_tex1",
      "pbrMetallicRoughness": {
        "baseColorTexture": {
          "index": 2
        },
        "metallicFactor": 0.0
      }
    }
  ],
  "meshes": [
    {
      "name": "Object_0",
      "primitives": [
        {
          "attributes": {
            "NORMAL": 1,
            "POSITION": 0,
            "TEXCOORD_0": 2
          },
          "indices": 3,
          "material": 0,
          "mode": 4
        }
      ]
    },
    {
      "name": "Object_1",
      "primitives": [
        {
          "attributes": {
            "NORMAL": 5,
            "POSITION": 4,
            "TEXCOORD_0": 6
          },
          "indices": 7,
          "material": 1,
          "mode": 4
        }
      ]
    },
    {
      "name": "Object_2",
      "primitives": [
        {
          "attributes": {
            "NORMAL": 9,
            "POSITION": 8,
            "TEXCOORD_0": 10
          },
          "indices": 11,
          "material": 1,
          "mode": 4
        }
      ]
    },
    {
      "name": "Object_3",
      "primitives": [
        {
          "attributes": {
            "NORMAL": 13,
            "POSITION": 12,
            "TEXCOORD_0": 14
          },
          "indices": 15,
          "material": 1,
          "mode": 4
        }
      ]
    },
    {
      "name": "Object_4",
      "primitives": [
        {
          "attributes": {
            "NORMAL": 17,
            "POSITION": 16,
            "TEXCOORD_0": 18
          },
          "indices": 19,
          "material": 1,
          "mode": 4
        }
      ]
    },
    {
      "name": "Object_5",
      "primitives": [
        {
          "attributes": {
            "NORMAL": 21,
            "POSITION": 20,
            "TEXCOORD_0": 22
          },
          "indices": 23,
          "material": 1,
          "mode": 4
        }
      ]
    },
    {
      "name": "Object_6",
      "primitives": [
        {
          "attributes": {
            "NORMAL": 25,
            "POSITION": 24,
            "TEXCOORD_0": 26
          },
          "indices": 27,
          "material": 1,
          "mode": 4
        }
      ]
    },
    {
      "name": "Object_7",
      "primitives": [
        {
          "attributes": {
            "NORMAL": 29,
            "POSITION": 28,
            "TEXCOORD_0": 30
          },
          "indices": 31,
          "material": 1,
          "mode": 4
        }
      ]
    },
    {
      "name": "Object_8",
      "primitives": [
        {
          "attributes": {
            "NORMAL": 33,
            "POSITION": 32,
            "TEXCOORD_0": 34
          },
          "indices": 35,
          "material": 1,
          "mode": 4
        }
      ]
    },
    {
      "name": "Object_9",
      "primitives": [
        {
          "attributes": {
            "NORMAL": 37,
            "POSITION": 36,
            "TEXCOORD_0": 38
          },
          "indices": 39,
          "material": 2,
          "mode": 4
        }
      ]
    },
    {
      "name": "Object_10",
      "primitives": [
        {
          "attributes": {
            "NORMAL": 41,
            "POSITION": 40,
            "TEXCOORD_0": 42
          },
          "indices": 43,
          "material": 2,
          "mode": 4
        }
      ]
    },
    {
      "name": "Object_11",
      "primitives": [
        {
          "attributes": {
            "NORMAL": 45,
            "POSITION": 44,
            "TEXCOORD_0": 46
          },
          "indices": 47,
          "material": 2,
          "mode": 4
        }
      ]
    },
    {
      "name": "Object_12",
      "primitives": [
        {
          "attributes": {
            "NORMAL": 49,
            "POSITION": 48,
            "TEXCOORD_0": 50
          },
          "indices": 51,
          "material": 2,
          "mode": 4
        }
      ]
    },
    {
      "name": "Object_13",
      "primitives": [
        {
          "attributes": {
            "NORMAL": 53,
            "POSITION": 52,
            "TEXCOORD_0": 54
          },
          "indices": 55,
          "material": 2,
          "mode": 4
        }
      ]
    },
    {
      "name": "Object_14",
      "primitives": [
        {
          "attributes": {
            "NORMAL": 57,
            "POSITION": 56,
            "TEXCOORD_0": 58
          },
          "indices": 59,
          "material": 2,
          "mode": 4
        }
      ]
    },
    {
      "name": "Object_15",
      "primitives": [
        {
          "attributes": {
            "NORMAL": 61,
            "POSITION": 60,
            "TEXCOORD_0": 62
          },
          "indices": 63,
          "material": 2,
          "mode": 4
        }
      ]
    },
    {
      "name": "Object_16",
      "primitives": [
        {
          "attributes": {
            "NORMAL": 65,
            "POSITION": 64,
            "TEXCOORD_0": 66
          },
          "indices": 67,
          "material": 2,
          "mode": 4
        }
      ]
    }
  ],
  "nodes": [
    {
      "children": [
        1
      ],
      "matrix": [
        1.0,
        0.0,
        0.0,
        0.0,
        0.0,
        2.220446049250313e-16,
        -1.0,
        0.0,
        0.0,
        1.0,
        2.220446049250313e-16,
        0.0,
        0.0,
        0.0,
        0.0,
        1.0
      ],
      "name": "Sketchfab_model"
    },
    {
      "children": [
        2
      ],
      "name": "root"
    },
    {
      "children": [
        3,
        5
      ],
      "matrix": [
        1.0,
        0.0,
        0.0,
        0.0,
        0.0,
        2.220446049250313e-16,
        1.0,
        0.0,
        0.0,
        -1.0,
        2.220446049250313e-16,
        0.0,
        0.0,
        0.0,
        0.0,
        1.0
      ],
      "name": "GLTF_SceneRootNode"
    },
    {
      "children": [
        4
      ],
      "matrix": [
        -0.0005787802800953987,
        -0.3124650513947383,
        0.0011145144338084066,
        0.0,
        0.0014425881339312266,
        -0.001117176652123193,
        -0.31246227764719975,
        0.0,
        0.3124637387753518,
        -0.000573625020889239,
        0.0014446458168342461,
        0.0,
        2.6180806159973145,
        -0.009604118764400482,
        0.008582741022109985,
        1.0
      ],
      "name": "Cube_0"
    },
    {
      "mesh": 0,
      "name": "Object_4"
    },
    {
      "children": [
        6,
        7,
        8,
        9,
        10,
        11,
        12,
        13,
        14,
        15,
        16,
        17,
        18,
        19,
        20,
        21
      ],
      "matrix": [
        -0.5272232652508727,
        -0.9916088580169863,
        0.03642172498235419,
        0.0,
        -0.8477374734760158,
        0.42868656059190935,
        -0.6001233619870289,
        0.0,
        0.5157091252288292,
        -0.30906110481234483,
        -0.9492653160819067,
        0.0,
        0.0,
        0.0,
        0.0,
        1.0
      ],
      "name": "Q10987-files2_3"
    },
    {
      "mesh": 1,
      "name": "Object_6"
    },
    {
      "mesh": 2,
      "name": "Object_7"
    },
    {
      "mesh": 3,
      "name": "Object_8"
    },
    {
      "mesh": 4,
      "name": "Object_9"
    },
    {
      "mesh": 5,
      "name": "Object_10"
    },
    {
      "mesh": 6,
      "name": "Object_11"
    },
    {
      "mesh": 7,
      "name": "Object_12"
    },
    {
      "mesh": 8,
      "name": "Object_13"
    },
    {
      "mesh": 9,
      "name": "Object_14"
    },
    {
      "mesh": 10,
      "name": "Object_15"
    },
    {
      "mesh": 11,
      "name": "Object_16"
    },
    {
      "mesh": 12,
      "name": "Object_17"
    },
    {
      "mesh": 13,
      "name": "Object_18"
    },
    {
      "mesh": 14,
      "name": "Object_19"
    },
    {
      "mesh": 15,
      "name": "Object_20"
    },
    {
      "mesh": 16,
      "name": "Object_21"
    }
  ],
  "samplers": [
    {
      "magFilter": 9729,
      "minFilter": 9987,
      "wrapS": 10497,
      "wrapT": 10497
    }
  ],
  "scene": 0,
  "scenes": [
    {
      "name": "Sketchfab_Scene",
      "nodes": [
        0
      ]
    }
  ],
  "textures": [
    {
      "sampler": 0,
      "source": 0
    },
    {
      "sampler": 0,
      "source": 1
    },
    {
      "sampler": 0,
      "source": 2
    }
  ]
}
